<svg width="24" height="24" viewBox="0 0 24 24" fill="none" xmlns="http://www.w3.org/2000/svg">
<g opacity="0.78">
<path d="M21.9375 7.51125C21.7263 7.27193 21.4666 7.08028 21.1757 6.94903C20.8847 6.81778 20.5692 6.74994 20.25 6.75L15 6.75V5.25C15 4.25544 14.6049 3.30161 13.9017 2.59835C13.1984 1.89509 12.2446 1.5 11.25 1.5C11.1107 1.4999 10.9741 1.53862 10.8555 1.61181C10.7369 1.685 10.6411 1.78977 10.5787 1.91438L7.03687 9L3 9C2.60218 9 2.22064 9.15804 1.93934 9.43934C1.65804 9.72064 1.5 10.1022 1.5 10.5L1.5 18.75C1.5 19.1478 1.65804 19.5294 1.93934 19.8107C2.22064 20.092 2.60218 20.25 3 20.25L19.125 20.25C19.6732 20.2502 20.2025 20.0503 20.6137 19.6878C21.0249 19.3253 21.2896 18.8251 21.3581 18.2813L22.4831 9.28125C22.523 8.9644 22.495 8.64268 22.4009 8.3375C22.3068 8.03232 22.1488 7.75066 21.9375 7.51125ZM3 10.5L6.75 10.5L6.75 18.75H3L3 10.5Z" fill="#18204A"/>
</g>
</svg>
