<svg width="24" height="24" viewBox="0 0 24 24" fill="none" xmlns="http://www.w3.org/2000/svg">
<path fill-rule="evenodd" clip-rule="evenodd" d="M6.71264 8.187C6.28664 8.187 5.94164 7.8315 6.00764 7.4115C6.42014 4.86 8.36414 3 11.7376 3C15.1126 3 17.3881 5.04 17.3881 7.8225C17.3881 9.8385 16.3906 11.2545 14.7031 12.282C13.0531 13.2705 12.5821 13.959 12.5821 15.297V15.342C12.5821 15.5409 12.5031 15.7317 12.3625 15.8723C12.2218 16.013 12.0311 16.092 11.8321 16.092H10.6771C10.4795 16.092 10.2899 16.014 10.1494 15.875C10.009 15.736 9.92912 15.5471 9.92714 15.3495L9.92264 15.0495C9.85814 13.218 10.6381 12.048 12.3901 10.9815C13.9351 10.0335 14.4856 9.279 14.4856 7.9395C14.4856 6.471 13.3486 5.3925 11.5966 5.3925C10.0831 5.3925 9.03164 6.186 8.68964 7.4955C8.59064 7.8765 8.27264 8.187 7.87964 8.187H6.71264ZM11.2441 21C12.1771 21 12.8866 20.289 12.8866 19.365C12.8866 18.438 12.1771 17.727 11.2441 17.727C10.3351 17.727 9.61364 18.438 9.61364 19.3635C9.61364 20.289 10.3351 21 11.2441 21Z" fill="#959592"/>
</svg>
