<svg width="16" height="16" viewBox="0 0 16 16" fill="none" xmlns="http://www.w3.org/2000/svg">
<path d="M11.9998 14.0001L3.9998 14.0001C3.3374 14.0001 2.7998 13.4625 2.7998 12.8001L2.7998 8.8001C2.7998 8.1377 3.3374 7.6001 3.9998 7.6001L11.9998 7.6001C12.6622 7.6001 13.1998 8.1377 13.1998 8.8001L13.1998 12.8001C13.1998 13.4625 12.6622 14.0001 11.9998 14.0001Z" stroke="#1A1A18" stroke-width="0.8" stroke-linecap="round" stroke-linejoin="round"/>
<path d="M5.2002 6V4.8C5.2002 3.2536 6.4538 2 8.0002 2C9.5466 2 10.8002 3.2536 10.8002 4.8V6" stroke="#1A1A18" stroke-width="0.8" stroke-linecap="round" stroke-linejoin="round"/>
<path d="M7.9998 12.0001C8.66255 12.0001 9.1998 11.4628 9.1998 10.8001C9.1998 10.1374 8.66255 9.6001 7.9998 9.6001C7.33706 9.6001 6.7998 10.1374 6.7998 10.8001C6.7998 11.4628 7.33706 12.0001 7.9998 12.0001Z" stroke="#1A1A18" stroke-width="0.8" stroke-linecap="round" stroke-linejoin="round"/>
</svg>
