<svg width="24" height="24" viewBox="0 0 24 24" fill="none" xmlns="http://www.w3.org/2000/svg">
<path d="M21.5998 6.0602C20.8798 6.3602 20.1598 6.6002 19.3198 6.6602C20.1598 6.1802 20.7598 5.4002 21.0598 4.5002C20.2798 4.9802 19.4398 5.2802 18.5398 5.4602C17.8198 4.6802 16.7998 4.2002 15.7198 4.2002C13.5598 4.2002 11.7598 5.9402 11.7598 8.1602C11.7598 8.4602 11.8198 8.7602 11.8798 9.0602C8.57984 8.8802 5.69984 7.3202 3.71984 4.9202C3.35984 5.5202 3.17984 6.1802 3.17984 6.9002C3.17984 8.2802 3.89984 9.4802 4.91984 10.2002C4.25984 10.2002 3.65984 10.0202 3.11984 9.7202V9.7802C3.11984 11.7002 4.49984 13.2602 6.29984 13.6202C5.93984 13.6802 5.63984 13.7402 5.27984 13.7402C5.03984 13.7402 4.79984 13.7402 4.55984 13.6802C5.03984 15.2402 6.53984 16.3802 8.21984 16.4402C6.89984 17.5202 5.15984 18.1202 3.29984 18.1202C2.99984 18.1202 2.63984 18.1202 2.33984 18.0602C4.13984 19.1402 6.23984 19.8002 8.45984 19.8002C15.7198 19.8002 19.6798 13.8002 19.6798 8.5802C19.6798 8.4002 19.6798 8.2202 19.6798 8.1002C20.3998 7.5002 21.0598 6.8402 21.5998 6.0602Z" fill="#2EBAE8"/>
</svg>
