<svg width="24" height="24" viewBox="0 0 24 24" fill="none" xmlns="http://www.w3.org/2000/svg">
<g clip-path="url(#clip0_37_1510)">
<path d="M20 2L4 2C3 2 2 2.9 2 4L2 7.01C2 7.73 2.43 8.35 3 8.7L3 20C3 21.1 4.1 22 5 22L19 22C19.9 22 21 21.1 21 20L21 8.7C21.57 8.35 22 7.73 22 7.01V4C22 2.9 21 2 20 2ZM14 14L10 14C9.45 14 9 13.55 9 13C9 12.45 9.45 12 10 12L14 12C14.55 12 15 12.45 15 13C15 13.55 14.55 14 14 14ZM20 7L4 7L4 4L20 4V7Z" fill="#1A1A18"/>
</g>
<defs>
<clipPath id="clip0_37_1510">
<rect width="24" height="24" fill="white"/>
</clipPath>
</defs>
</svg>
