<svg width="35" height="35" viewBox="0 0 35 35" fill="none" xmlns="http://www.w3.org/2000/svg">
<circle cx="17.5" cy="17.5" r="17.5" fill="#18204A"/>
<path d="M23.7069 19.293C23.5194 19.1055 23.2651 19.0002 22.9999 19.0002C22.7348 19.0002 22.4804 19.1055 22.2929 19.293L18.9999 22.586L18.9999 11C18.9999 10.7348 18.8946 10.4804 18.707 10.2929C18.5195 10.1054 18.2651 10 17.9999 10C17.7347 10 17.4803 10.1054 17.2928 10.2929C17.1053 10.4804 16.9999 10.7348 16.9999 11L16.9999 22.586L13.7069 19.293C13.5183 19.1108 13.2657 19.01 13.0035 19.0123C12.7413 19.0146 12.4905 19.1198 12.3051 19.3052C12.1197 19.4906 12.0145 19.7414 12.0122 20.0036C12.01 20.2658 12.1108 20.5184 12.2929 20.707L17.2929 25.707C17.4804 25.8945 17.7348 25.9998 17.9999 25.9998C18.2651 25.9998 18.5194 25.8945 18.7069 25.707L23.7069 20.707C23.8944 20.5195 23.9997 20.2652 23.9997 20C23.9997 19.7348 23.8944 19.4805 23.7069 19.293Z" fill="white"/>
</svg>
