<svg width="34" height="34" viewBox="0 0 34 34" fill="none" xmlns="http://www.w3.org/2000/svg">
<path d="M7.08333 15.5833L12.75 15.5833C14.3083 15.5833 15.5833 14.3083 15.5833 12.75L15.5833 7.08333C15.5833 5.525 14.3083 4.25 12.75 4.25L7.08333 4.25C5.525 4.25 4.25 5.525 4.25 7.08333L4.25 12.75C4.25 14.3083 5.525 15.5833 7.08333 15.5833ZM7.08333 29.75L12.75 29.75C14.3083 29.75 15.5833 28.475 15.5833 26.9167L15.5833 21.25C15.5833 19.6917 14.3083 18.4167 12.75 18.4167H7.08333C5.525 18.4167 4.25 19.6917 4.25 21.25L4.25 26.9167C4.25 28.475 5.525 29.75 7.08333 29.75ZM18.4167 7.08333V12.75C18.4167 14.3083 19.6917 15.5833 21.25 15.5833L26.9167 15.5833C28.475 15.5833 29.75 14.3083 29.75 12.75L29.75 7.08333C29.75 5.525 28.475 4.25 26.9167 4.25L21.25 4.25C19.6917 4.25 18.4167 5.525 18.4167 7.08333ZM21.25 29.75L26.9167 29.75C28.475 29.75 29.75 28.475 29.75 26.9167L29.75 21.25C29.75 19.6917 28.475 18.4167 26.9167 18.4167L21.25 18.4167C19.6917 18.4167 18.4167 19.6917 18.4167 21.25L18.4167 26.9167C18.4167 28.475 19.6917 29.75 21.25 29.75Z" fill="#18204A"/>
</svg>
