<svg width="24" height="24" viewBox="0 0 24 24" fill="none" xmlns="http://www.w3.org/2000/svg">
<path d="M21.5999 12.0001C21.5996 10.1656 21.0737 8.36951 20.0844 6.82459C19.095 5.27966 17.6838 4.05056 16.0176 3.28278C14.3514 2.51501 12.5002 2.24071 10.683 2.49237C8.86578 2.74403 7.15874 3.51111 5.76395 4.70279C4.36915 5.89447 3.34502 7.46086 2.81279 9.2165C2.28055 10.9721 2.26251 12.8435 2.7608 14.6091C3.25909 16.3747 4.25283 17.9605 5.62439 19.1789C6.99595 20.3972 8.68789 21.1971 10.4999 21.4837L10.4999 14.7751H8.0627V12.0001H10.4999V9.88511C10.4999 7.47911 11.9333 6.15011 14.1257 6.15011C14.8457 6.16009 15.564 6.22266 16.2749 6.33731V8.70011H15.0641C14.8578 8.6727 14.6479 8.69208 14.4501 8.75681C14.2523 8.82153 14.0716 8.92994 13.9213 9.074C13.7711 9.21806 13.6552 9.39408 13.5823 9.58902C13.5093 9.78396 13.4812 9.99281 13.4999 10.2001V12.0001H16.1627L15.7367 14.7751H13.4999L13.4999 21.4837C15.7582 21.1265 17.8148 19.975 19.2997 18.2364C20.7846 16.4979 21.6003 14.2865 21.5999 12.0001Z" fill="#18204A"/>
</svg>
