<svg width="30" height="30" viewBox="0 0 30 30" fill="none" xmlns="http://www.w3.org/2000/svg">
<path d="M8.57143 26.7857C9.16316 26.7857 9.64286 26.306 9.64286 25.7143C9.64286 25.1225 9.16316 24.6429 8.57143 24.6429C7.97969 24.6429 7.5 25.1225 7.5 25.7143C7.5 26.306 7.97969 26.7857 8.57143 26.7857Z" fill="#393937"/>
<path d="M23.5714 26.7857C24.1632 26.7857 24.6429 26.306 24.6429 25.7143C24.6429 25.1225 24.1632 24.6429 23.5714 24.6429C22.9797 24.6429 22.5 25.1225 22.5 25.7143C22.5 26.306 22.9797 26.7857 23.5714 26.7857Z" fill="#393937"/>
<path d="M8.57143 26.7857C9.16316 26.7857 9.64286 26.306 9.64286 25.7143C9.64286 25.1225 9.16316 24.6429 8.57143 24.6429C7.97969 24.6429 7.5 25.1225 7.5 25.7143C7.5 26.306 7.97969 26.7857 8.57143 26.7857Z" stroke="#393937" stroke-width="2.57143" stroke-miterlimit="10" stroke-linecap="square"/>
<path d="M23.5714 26.7857C24.1632 26.7857 24.6429 26.306 24.6429 25.7143C24.6429 25.1225 24.1632 24.6429 23.5714 24.6429C22.9797 24.6429 22.5 25.1225 22.5 25.7143C22.5 26.306 22.9797 26.7857 23.5714 26.7857Z" stroke="#393937" stroke-width="2.57143" stroke-miterlimit="10" stroke-linecap="square"/>
<path d="M7.28566 9.64286L25.7142 9.64286L23.9164 18.6343C23.716 19.6361 22.8364 20.3571 21.8153 20.3571L10.4474 20.3571C9.37388 20.3571 8.4653 19.5621 8.32388 18.4971L6.42852 4.28572L3.21423 4.28572" stroke="#393937" stroke-width="2.57143" stroke-miterlimit="10" stroke-linecap="square"/>
</svg>
