<svg width="30" height="30" viewBox="0 0 30 30" fill="none" xmlns="http://www.w3.org/2000/svg">
<path d="M22.4884 24.102C22.3438 21.5435 20.8845 20.7313 18.7502 20.0199C17.1195 19.4767 16.6706 17.7645 16.5474 16.856" stroke="#393937" stroke-width="2.57143" stroke-miterlimit="10"/>
<path d="M13.4519 16.8545C13.3308 17.7588 12.8905 19.4731 11.2501 20.0195C9.11584 20.7309 7.65441 21.5409 7.50977 24.0995" stroke="#393937" stroke-width="2.57143" stroke-miterlimit="10"/>
<path d="M15.0001 17.1429C12.6333 17.1429 10.7144 15.2239 10.7144 12.8571V11.7857C10.7144 9.41893 12.6333 7.5 15.0001 7.5C17.3669 7.5 19.2858 9.41893 19.2858 11.7857V12.8571C19.2858 15.2239 17.3669 17.1429 15.0001 17.1429Z" stroke="#393937" stroke-width="2.57143" stroke-miterlimit="10" stroke-linecap="square"/>
<path d="M15.0001 26.7858C21.5091 26.7858 26.7858 21.5091 26.7858 15.0001C26.7858 8.491 21.5091 3.21436 15.0001 3.21436C8.491 3.21436 3.21436 8.491 3.21436 15.0001C3.21436 21.5091 8.491 26.7858 15.0001 26.7858Z" stroke="#393937" stroke-width="2.57143" stroke-miterlimit="10" stroke-linecap="square"/>
</svg>
