<svg width="32" height="32" viewBox="0 0 32 32" fill="none" xmlns="http://www.w3.org/2000/svg">
<path d="M16.0002 3.19995C13.4686 3.19995 10.9939 3.95066 8.8889 5.35714C6.78395 6.76362 5.14334 8.76271 4.17454 11.1016C3.20574 13.4405 2.95226 16.0142 3.44615 18.4971C3.94004 20.9801 5.15912 23.2608 6.94923 25.0509C8.73935 26.841 11.0201 28.0601 13.503 28.554C15.986 29.0479 18.5597 28.7944 20.8986 27.8256C23.2374 26.8568 25.2365 25.2162 26.643 23.1112C28.0495 21.0063 28.8002 18.5316 28.8002 16C28.7903 12.6082 27.4385 9.35826 25.0402 6.95994C22.6419 4.56162 19.3919 3.20987 16.0002 3.19995ZM19.7602 16.56L14.9602 21.36C14.888 21.4358 14.8011 21.4961 14.7048 21.5373C14.6085 21.5786 14.5049 21.5998 14.4002 21.5998C14.2955 21.5998 14.1919 21.5786 14.0956 21.5373C13.9993 21.4961 13.9124 21.4358 13.8402 21.36C13.7644 21.2877 13.704 21.2008 13.6628 21.1046C13.6216 21.0083 13.6003 20.9047 13.6003 20.8C13.6003 20.6952 13.6216 20.5916 13.6628 20.4953C13.704 20.3991 13.7644 20.3122 13.8402 20.24L18.0802 16L13.8402 11.76C13.6942 11.6109 13.6128 11.4103 13.6139 11.2016C13.6149 10.9929 13.6983 10.7931 13.8458 10.6456C13.9934 10.498 14.1932 10.4147 14.4019 10.4136C14.6105 10.4126 14.8112 10.4939 14.9602 10.64L19.7602 15.44C19.836 15.5122 19.8964 15.5991 19.9376 15.6953C19.9788 15.7916 20.0001 15.8952 20.0001 16C20.0001 16.1047 19.9788 16.2083 19.9376 16.3046C19.8964 16.4008 19.836 16.4877 19.7602 16.56Z" fill="#1A1A18"/>
</svg>
