<svg width="24" height="24" viewBox="0 0 24 24" fill="none" xmlns="http://www.w3.org/2000/svg">
<path d="M21.75 18.3399L16.74 13.3299C17.2714 12.6045 17.6462 11.7766 17.8407 10.8986C18.0353 10.0207 18.0452 9.11193 17.87 8.22994C17.36 5.53994 15.1 3.41994 12.38 3.05994C8.57997 2.54994 5.29997 5.35994 5.02997 8.99994H3.20997C3.11125 8.99936 3.01458 9.02801 2.93212 9.08229C2.84967 9.13656 2.78512 9.21403 2.74662 9.30493C2.70812 9.39583 2.69739 9.49609 2.71579 9.59308C2.73418 9.69007 2.78087 9.77944 2.84997 9.84994L5.63997 12.6399C5.83997 12.8399 6.14997 12.8399 6.34997 12.6399L9.13997 9.84994C9.45997 9.53994 9.23997 8.99994 8.78997 8.99994L7.04997 8.99994C7.32997 6.53994 9.56997 4.65994 12.18 5.04994C13.99 5.31994 15.51 6.71994 15.89 8.50994C16.0373 9.16837 16.0349 9.85148 15.8829 10.5089C15.731 11.1662 15.4333 11.7811 15.0119 12.308C14.5906 12.835 14.0562 13.2606 13.4484 13.5534C12.8405 13.8463 12.1747 13.9989 11.5 13.9999C11.01 13.9999 10.54 13.9099 10.1 13.7699C9.92651 13.7146 9.74107 13.7087 9.56444 13.7528C9.38781 13.797 9.22698 13.8895 9.09997 14.0199C8.56997 14.5499 8.77997 15.4499 9.47997 15.6799C10.4595 16.0004 11.5013 16.0823 12.5189 15.9188C13.5364 15.7553 14.5002 15.3511 15.33 14.7399L20.34 19.7499C20.5269 19.9369 20.7805 20.042 21.045 20.042C21.3094 20.042 21.563 19.9369 21.75 19.7499C21.9369 19.563 22.042 19.3094 22.042 19.0449C22.042 18.7805 21.9369 18.5269 21.75 18.3399Z" fill="#18204A"/>
</svg>
