<svg width="24" height="24" viewBox="0 0 24 24" fill="none" xmlns="http://www.w3.org/2000/svg">
<path d="M21.5999 11.9999C21.5996 10.1653 21.0737 8.36927 20.0844 6.82434C19.095 5.27942 17.6838 4.05031 16.0176 3.28254C14.3514 2.51476 12.5002 2.24047 10.683 2.49213C8.86578 2.74379 7.15874 3.51087 5.76395 4.70255C4.36915 5.89423 3.34502 7.46061 2.81279 9.21625C2.28055 10.9719 2.26251 12.8433 2.7608 14.6089C3.25909 16.3744 4.25283 17.9603 5.62439 19.1786C6.99595 20.397 8.68789 21.1968 10.4999 21.4835L10.4999 14.7749H8.0627V11.9999H10.4999V9.88486C10.4999 7.47886 11.9333 6.14986 14.1257 6.14986C14.8457 6.15985 15.564 6.22241 16.2749 6.33706V8.69986H15.0641C14.8578 8.67246 14.6479 8.69184 14.4501 8.75656C14.2523 8.82128 14.0716 8.92969 13.9213 9.07376C13.7711 9.21782 13.6552 9.39384 13.5823 9.58878C13.5093 9.78371 13.4812 9.99257 13.4999 10.1999V11.9999H16.1627L15.7367 14.7749H13.4999L13.4999 21.4835C15.7582 21.1262 17.8148 19.9747 19.2997 18.2362C20.7846 16.4976 21.6003 14.2862 21.5999 11.9999Z" fill="#2E6FE8"/>
</svg>
