<svg width="35" height="35" viewBox="0 0 35 35" fill="none" xmlns="http://www.w3.org/2000/svg">
<circle cx="17.5" cy="17.5" r="17.5" fill="#18204A"/>
<path d="M24.6667 18L24.6667 23C24.6667 23.46 24.2934 23.8333 23.8334 23.8333C23.3734 23.8333 23.0001 23.46 23.0001 23L23.0001 11.3333C23.0001 10.8725 22.6276 10.5 22.1667 10.5L10.5001 10.5C10.0392 10.5 9.66675 10.8725 9.66675 11.3333L9.66675 23C9.66675 24.3783 10.7884 25.5 12.1667 25.5L23.8334 25.5C25.2117 25.5 26.3334 24.3783 26.3334 23V18H24.6667ZM19.6667 17.1667V18.8333H13.0001V17.1667L19.6667 17.1667ZM13.0001 15.5L13.0001 13.8333L19.6667 13.8333V15.5L13.0001 15.5ZM19.6667 20.5L19.6667 22.1667H17.1667V20.5H19.6667Z" fill="white"/>
</svg>
