<svg width="24" height="24" viewBox="0 0 24 24" fill="none" xmlns="http://www.w3.org/2000/svg">
<path d="M21.4199 8.16022C21.4199 8.16022 21.2399 6.84022 20.6399 6.24022C19.9199 5.46022 19.0799 5.46021 18.7199 5.40021C16.0199 5.22021 11.9999 5.22021 11.9999 5.22021C11.9999 5.22021 7.9799 5.22021 5.2799 5.40021C4.9199 5.46021 4.0799 5.46022 3.3599 6.24022C2.7599 6.84022 2.5799 8.16022 2.5799 8.16022C2.5799 8.16022 2.3999 9.72022 2.3999 11.2802L2.3999 12.7202C2.3999 14.2802 2.5799 15.8402 2.5799 15.8402C2.5799 15.8402 2.7599 17.1602 3.3599 17.7602C4.0799 18.5402 5.0399 18.4802 5.4599 18.6002C7.0199 18.7202 11.9999 18.7802 11.9999 18.7802C11.9999 18.7802 16.0199 18.7802 18.7199 18.6002C19.0799 18.5402 19.9199 18.5402 20.6399 17.7602C21.2399 17.1602 21.4199 15.8402 21.4199 15.8402C21.4199 15.8402 21.5999 14.2802 21.5999 12.7202L21.5999 11.2802C21.5999 9.72022 21.4199 8.16022 21.4199 8.16022ZM10.0199 14.5202L10.0199 9.12021L15.1799 11.8202L10.0199 14.5202Z" fill="#E82E2E"/>
</svg>
