<svg width="36" height="36" viewBox="0 0 36 36" fill="none" xmlns="http://www.w3.org/2000/svg">
<rect width="36" height="36" rx="12" fill="#D4EE26"/>
<path d="M18.0002 19.9999C19.5466 19.9999 20.8002 18.7463 20.8002 17.1999C20.8002 15.6535 19.5466 14.3999 18.0002 14.3999C16.4538 14.3999 15.2002 15.6535 15.2002 17.1999C15.2002 18.7463 16.4538 19.9999 18.0002 19.9999Z" stroke="#60605C" stroke-width="0.8" stroke-linecap="round" stroke-linejoin="round"/>
<path d="M16.8002 19.7295C16.7905 20.0527 16.68 20.3648 16.4842 20.6221C16.2884 20.8794 16.0171 21.0691 15.7082 21.1647L13.8946 22.0351C13.8181 22.0672 13.7442 22.1055 13.6738 22.1495" stroke="#60605C" stroke-width="0.8" stroke-linecap="round" stroke-linejoin="round"/>
<path d="M22.3265 22.1505C22.256 22.1065 22.1822 22.0682 22.1057 22.0361L20.2937 21.1657C19.6281 20.8153 19.2017 20.4193 19.2017 19.7305" stroke="#60605C" stroke-width="0.8" stroke-linecap="round" stroke-linejoin="round"/>
<path d="M18 24C21.3137 24 24 21.3137 24 18C24 14.6863 21.3137 12 18 12C14.6863 12 12 14.6863 12 18C12 21.3137 14.6863 24 18 24Z" stroke="#60605C" stroke-width="0.8" stroke-linecap="round" stroke-linejoin="round"/>
</svg>
