<svg width="24" height="24" viewBox="0 0 24 24" fill="none" xmlns="http://www.w3.org/2000/svg">
<path d="M11.9999 2C6.47986 2 1.99986 6.48 1.99986 12C1.99986 13.54 2.35986 14.98 2.96986 16.29L1.50986 21.25C1.28986 22 1.99986 22.71 2.75986 22.48L7.71986 21.02C9.37986 21.81 11.2799 22.17 13.2999 21.91C17.8599 21.32 21.5099 17.56 21.9599 12.99C22.5299 7.03 17.8499 2 11.9999 2ZM14.9999 13H12.9999V15C12.9999 15.55 12.5499 16 11.9999 16C11.4499 16 10.9999 15.55 10.9999 15V13H8.99986C8.44986 13 7.99986 12.55 7.99986 12C7.99986 11.45 8.44986 11 8.99986 11H10.9999V9C10.9999 8.45 11.4499 8 11.9999 8C12.5499 8 12.9999 8.45 12.9999 9V11H14.9999C15.5499 11 15.9999 11.45 15.9999 12C15.9999 12.55 15.5499 13 14.9999 13Z" fill="#18204A"/>
</svg>
