<svg width="36" height="36" viewBox="0 0 36 36" fill="none" xmlns="http://www.w3.org/2000/svg">
<rect width="36" height="36" rx="12" fill="#D4EE26"/>
<path d="M23.2 14.3999L12.8 14.3999C12.3582 14.3999 12 14.7581 12 15.1999L12 22.3999C12 22.8417 12.3582 23.1999 12.8 23.1999L23.2 23.1999C23.6418 23.1999 24 22.8417 24 22.3999V15.1999C24 14.7581 23.6418 14.3999 23.2 14.3999Z" stroke="#60605C" stroke-width="0.8" stroke-linecap="round" stroke-linejoin="round"/>
<path d="M18 20.7998C19.1046 20.7998 20 19.9044 20 18.7998C20 17.6952 19.1046 16.7998 18 16.7998C16.8954 16.7998 16 17.6952 16 18.7998C16 19.9044 16.8954 20.7998 18 20.7998Z" stroke="#60605C" stroke-width="0.8" stroke-linecap="round" stroke-linejoin="round"/>
<path d="M13.6001 12L22.4001 12" stroke="#60605C" stroke-width="0.8" stroke-linecap="round" stroke-linejoin="round"/>
</svg>
