<svg width="32" height="32" viewBox="0 0 32 32" fill="none" xmlns="http://www.w3.org/2000/svg">
<path d="M15.9998 28.8C18.5314 28.8 21.0061 28.0493 23.1111 26.6429C25.216 25.2364 26.8567 23.2373 27.8255 20.8984C28.7943 18.5595 29.0477 15.9858 28.5539 13.5029C28.06 11.0199 26.8409 8.73919 25.0508 6.94908C23.2607 5.15897 20.9799 3.93989 18.497 3.446C16.014 2.95211 13.4403 3.20559 11.1014 4.17439C8.76256 5.14319 6.76347 6.7838 5.35699 8.88875C3.9505 10.9937 3.1998 13.4684 3.1998 16C3.20972 19.3918 4.56147 22.6417 6.95979 25.0401C9.35811 27.4384 12.6081 28.7901 15.9998 28.8ZM12.2398 15.44L17.0398 10.64C17.112 10.5642 17.1989 10.5039 17.2952 10.4627C17.3915 10.4214 17.4951 10.4002 17.5998 10.4002C17.7045 10.4002 17.8081 10.4214 17.9044 10.4627C18.0007 10.5039 18.0876 10.5642 18.1598 10.64C18.2356 10.7123 18.296 10.7992 18.3372 10.8954C18.3784 10.9917 18.3997 11.0953 18.3997 11.2C18.3997 11.3048 18.3784 11.4084 18.3372 11.5047C18.296 11.6009 18.2356 11.6878 18.1598 11.76L13.9198 16L18.1598 20.24C18.3058 20.3891 18.3872 20.5897 18.3861 20.7984C18.3851 21.0071 18.3017 21.2069 18.1542 21.3544C18.0066 21.502 17.8068 21.5853 17.5981 21.5864C17.3895 21.5874 17.1888 21.5061 17.0398 21.36L12.2398 16.56C12.164 16.4878 12.1036 16.4009 12.0624 16.3047C12.0212 16.2084 11.9999 16.1048 11.9999 16C11.9999 15.8953 12.0212 15.7917 12.0624 15.6954C12.1036 15.5992 12.164 15.5123 12.2398 15.44Z" fill="#1A1A18"/>
</svg>
