<svg width="24" height="15" viewBox="0 0 24 15" fill="none" xmlns="http://www.w3.org/2000/svg">
<g clip-path="url(#clip0_213_145)">
<mask id="mask0_213_145" style="mask-type:luminance" maskUnits="userSpaceOnUse" x="-1" y="0" width="26" height="16">
<path d="M24.9252 0.638184H-0.924805V15.3899H24.9252V0.638184Z" fill="white"/>
</mask>
<g mask="url(#mask0_213_145)">
<path d="M-0.924805 0.638184H24.9252V15.3899H-0.924805V0.638184Z" fill="white"/>
</g>
<mask id="mask1_213_145" style="mask-type:luminance" maskUnits="userSpaceOnUse" x="-1" y="0" width="26" height="16">
<path d="M24.9252 0.638184H-0.924805V15.3899H24.9252V0.638184Z" fill="white"/>
</mask>
<g mask="url(#mask1_213_145)">
<path d="M-0.924805 0.638184H24.9252V1.7726H-0.924805V0.638184ZM-0.924805 2.90702H24.9252V4.04143H-0.924805V2.90702ZM-0.924805 5.17584H24.9252V6.31025H-0.924805V5.17584ZM-0.924805 7.44467H24.9252V8.57908H-0.924805V7.44467ZM-0.924805 9.71782H24.9252V10.8522H-0.924805V9.71782ZM-0.924805 11.9866H24.9252V13.1211H-0.924805V11.9866ZM-0.924805 14.2555H24.9252V15.3899H-0.924805V14.2555Z" fill="#D80027"/>
</g>
<mask id="mask2_213_145" style="mask-type:luminance" maskUnits="userSpaceOnUse" x="-1" y="0" width="27" height="16">
<path d="M25.3876 0.341797H-0.462402V15.0935H25.3876V0.341797Z" fill="white"/>
</mask>
<g mask="url(#mask2_213_145)">
<path d="M-0.462402 0.341309H12.4626V8.28221H-0.462402V0.341309Z" fill="#2E52B2"/>
</g>
<mask id="mask3_213_145" style="mask-type:luminance" maskUnits="userSpaceOnUse" x="-1" y="0" width="27" height="16">
<path d="M25.3876 0.341797H-0.462402V15.0935H25.3876V0.341797Z" fill="white"/>
</mask>
<g mask="url(#mask3_213_145)">
<path d="M1.94633 6.33261L1.74477 5.78049L1.52306 6.33261H0.85791L1.39708 6.66474L1.19552 7.21686L1.74477 6.87608L2.27891 7.21686L2.07231 6.66474L2.62156 6.33261H1.94633ZM4.7833 6.33261L4.5767 5.78049L4.36505 6.33261H3.6999L4.23907 6.66474L4.03751 7.21686L4.5767 6.87608L5.1209 7.21686L4.91935 6.66474L5.4585 6.33261H4.7833ZM7.6303 6.33261L7.41365 5.78049L7.2121 6.33261H6.5318L7.0861 6.66474L6.87445 7.21686L7.41365 6.87608L7.96795 7.21686L7.7563 6.66474L8.29545 6.33261H7.6303ZM10.4622 6.33261L10.2606 5.78049L10.049 6.33261H9.37885L9.92305 6.66474L9.7215 7.21686L10.2606 6.87608L10.8049 7.21686L10.5882 6.66474L11.1425 6.33261H10.4622ZM4.5767 3.5893L4.36505 4.14141H3.6999L4.23907 4.48217L4.03751 5.02567L4.5767 4.68922L5.1209 5.02567L4.91935 4.48217L5.4585 4.14141H4.7833L4.5767 3.5893ZM1.74477 3.5893L1.52306 4.14141H0.85791L1.39708 4.48217L1.19552 5.02567L1.74477 4.68922L2.27891 5.02567L2.07231 4.48217L2.62156 4.14141H1.94633L1.74477 3.5893ZM7.41365 3.5893L7.2121 4.14141H6.5318L7.0861 4.48217L6.87445 5.02567L7.41365 4.68922L7.96795 5.02567L7.7563 4.48217L8.29545 4.14141H7.6303L7.41365 3.5893ZM10.2606 3.5893L10.049 4.14141H9.37885L9.92305 4.48217L9.7215 5.02567L10.2606 4.68922L10.8049 5.02567L10.5882 4.48217L11.1425 4.14141H10.4622L10.2606 3.5893ZM1.74477 1.40674L1.52306 1.95022H0.85791L1.39708 2.29098L1.19552 2.83878L1.74477 2.49802L2.27891 2.83878L2.07231 2.29098L2.62156 1.95022H1.94633L1.74477 1.40674ZM4.5767 1.40674L4.36505 1.95022H3.6999L4.23907 2.29098L4.03751 2.83878L4.5767 2.49802L5.1209 2.83878L4.91935 2.29098L5.4585 1.95022H4.7833L4.5767 1.40674ZM7.41365 1.40674L7.2121 1.95022H6.5318L7.0861 2.29098L6.87445 2.83878L7.41365 2.49802L7.96795 2.83878L7.7563 2.29098L8.29545 1.95022H7.6303L7.41365 1.40674ZM10.2606 1.40674L10.049 1.95022H9.37885L9.92305 2.29098L9.7215 2.83878L10.2606 2.49802L10.8049 2.83878L10.5882 2.29098L11.1425 1.95022H10.4622L10.2606 1.40674Z" fill="white"/>
</g>
</g>
<defs>
<clipPath id="clip0_213_145">
<rect width="24" height="15" fill="white"/>
</clipPath>
</defs>
</svg>
