<svg width="16" height="16" viewBox="0 0 16 16" fill="none" xmlns="http://www.w3.org/2000/svg">
<path d="M2 6L14 6" stroke="#1A1A18" stroke-width="0.8" stroke-linecap="round" stroke-linejoin="round"/>
<path d="M12.8 3.6001L3.2 3.6001C2.88174 3.6001 2.57652 3.72653 2.35147 3.95157C2.12643 4.17661 2 4.48184 2 4.8001L2 12.0001C2 12.3184 2.12643 12.6236 2.35147 12.8486C2.57652 13.0737 2.88174 13.2001 3.2 13.2001L12.8 13.2001C13.1183 13.2001 13.4235 13.0737 13.6485 12.8486C13.8736 12.6236 14 12.3184 14 12.0001L14 4.8001C14 4.48184 13.8736 4.17661 13.6485 3.95157C13.4235 3.72653 13.1183 3.6001 12.8 3.6001Z" stroke="#1A1A18" stroke-width="0.8" stroke-linecap="round" stroke-linejoin="round"/>
<path d="M5.2002 2V3.6" stroke="#1A1A18" stroke-width="0.8" stroke-linecap="round" stroke-linejoin="round"/>
<path d="M10.7998 2V3.6" stroke="#1A1A18" stroke-width="0.8" stroke-linecap="round" stroke-linejoin="round"/>
</svg>
