<svg width="35" height="35" viewBox="0 0 35 35" fill="none" xmlns="http://www.w3.org/2000/svg">
<circle cx="17.5" cy="17.5" r="17.5" fill="#18204A"/>
<g clip-path="url(#clip0_213_3138)">
<path d="M17.9999 27.1667C22.7499 27.1667 26.6583 23.55 27.1249 18.9167C27.1749 18.425 26.7833 18 26.2916 18C25.8666 18 25.5082 18.3167 25.4666 18.7333C25.0999 22.5333 21.8916 25.5 17.9999 25.5C15.3999 25.5 13.1083 24.175 11.7666 22.1667H12.9999C13.4583 22.1667 13.8333 21.7917 13.8333 21.3333C13.8333 20.875 13.4583 20.5 12.9999 20.5H9.66659C9.20825 20.5 8.83325 20.875 8.83325 21.3333V24.6667C8.83325 25.125 9.20825 25.5 9.66659 25.5C10.1249 25.5 10.4999 25.125 10.4999 24.6667V23.275C12.1583 25.625 14.8999 27.1667 17.9999 27.1667ZM17.9999 8.83334C13.2499 8.83334 9.34159 12.45 8.87492 17.0833C8.83325 17.575 9.21659 18 9.70825 18C10.1333 18 10.4916 17.6833 10.5333 17.2667C10.8999 13.4667 14.1083 10.5 17.9999 10.5C20.5999 10.5 22.8916 11.825 24.2332 13.8333H22.9999C22.5416 13.8333 22.1666 14.2083 22.1666 14.6667C22.1666 15.125 22.5416 15.5 22.9999 15.5H26.3333C26.7916 15.5 27.1666 15.125 27.1666 14.6667V11.3333C27.1666 10.875 26.7916 10.5 26.3333 10.5C25.8749 10.5 25.4999 10.875 25.4999 11.3333V12.725C23.8416 10.375 21.0999 8.83334 17.9999 8.83334ZM17.2666 12.9C17.2666 12.4917 17.5999 12.1667 17.9999 12.1667C18.3999 12.1667 18.7333 12.4917 18.7333 12.9V13.2083C19.6249 13.3667 20.1916 13.8417 20.5333 14.2917C20.8166 14.6583 20.6666 15.1917 20.2333 15.375C19.9333 15.5 19.5833 15.4 19.3833 15.1417C19.1499 14.825 18.7333 14.5 18.0499 14.5C17.4666 14.5 16.5416 14.8083 16.5416 15.6583C16.5416 16.45 17.2583 16.75 18.7416 17.2417C20.7416 17.9333 21.2499 18.95 21.2499 20.1167C21.2499 22.3 19.1666 22.725 18.7333 22.8V23.1083C18.7333 23.5083 18.4083 23.8417 17.9999 23.8417C17.5916 23.8417 17.2666 23.5167 17.2666 23.1083V22.7583C16.7416 22.6333 15.6583 22.25 15.0249 21.0083C14.8333 20.6417 15.0499 20.1583 15.4333 20.0083C15.7749 19.875 16.1833 20 16.3583 20.325C16.6249 20.8333 17.1499 21.4667 18.1249 21.4667C18.8999 21.4667 19.7749 21.0667 19.7749 20.125C19.7749 19.325 19.1916 18.9083 17.8749 18.4333C16.9583 18.1083 15.0833 17.575 15.0833 15.675C15.0833 15.5917 15.0916 13.675 17.2666 13.2083V12.9Z" fill="white"/>
</g>
<defs>
<clipPath id="clip0_213_3138">
<rect width="20" height="20" fill="white" transform="translate(8 8)"/>
</clipPath>
</defs>
</svg>
