<svg width="30" height="30" viewBox="0 0 30 30" fill="none" xmlns="http://www.w3.org/2000/svg">
<path d="M6.42852 9.64287C8.20372 9.64287 9.6428 8.20378 9.6428 6.42858C9.6428 4.65338 8.20372 3.21429 6.42852 3.21429C4.65332 3.21429 3.21423 4.65338 3.21423 6.42858C3.21423 8.20378 4.65332 9.64287 6.42852 9.64287Z" fill="#18204A"/>
<path d="M6.42852 18.2143C8.20372 18.2143 9.6428 16.7752 9.6428 15C9.6428 13.2248 8.20372 11.7857 6.42852 11.7857C4.65332 11.7857 3.21423 13.2248 3.21423 15C3.21423 16.7752 4.65332 18.2143 6.42852 18.2143Z" fill="#18204A"/>
<path d="M6.42852 26.7857C8.20372 26.7857 9.6428 25.3466 9.6428 23.5714C9.6428 21.7962 8.20372 20.3571 6.42852 20.3571C4.65332 20.3571 3.21423 21.7962 3.21423 23.5714C3.21423 25.3466 4.65332 26.7857 6.42852 26.7857Z" fill="#18204A"/>
<path d="M25.7143 4.28571L12.8572 4.28571C12.2143 4.28571 11.7858 4.71428 11.7858 5.35713V7.49999C11.7858 8.14285 12.2143 8.57142 12.8572 8.57142L25.7143 8.57142C26.3572 8.57142 26.7858 8.14285 26.7858 7.49999V5.35713C26.7858 4.71428 26.3572 4.28571 25.7143 4.28571Z" fill="#18204A"/>
<path d="M25.7143 12.8571L12.8572 12.8571C12.2143 12.8571 11.7858 13.2857 11.7858 13.9286V16.0714C11.7858 16.7143 12.2143 17.1429 12.8572 17.1429L25.7143 17.1429C26.3572 17.1429 26.7858 16.7143 26.7858 16.0714V13.9286C26.7858 13.2857 26.3572 12.8571 25.7143 12.8571Z" fill="#18204A"/>
<path d="M25.7143 21.4286L12.8572 21.4286C12.2143 21.4286 11.7858 21.8571 11.7858 22.5V24.6428C11.7858 25.2857 12.2143 25.7143 12.8572 25.7143L25.7143 25.7143C26.3572 25.7143 26.7858 25.2857 26.7858 24.6428V22.5C26.7858 21.8571 26.3572 21.4286 25.7143 21.4286Z" fill="#18204A"/>
</svg>
