<svg width="246" height="195" viewBox="0 0 246 195" fill="none" xmlns="http://www.w3.org/2000/svg">
<g clip-path="url(#clip0_213_326)">
<path d="M7.71671 170.21V170.191H7.47395V170.172H7.26864V170.153H7.13797V170.135H6.98868V170.115H6.8766V170.097H6.76478V170.078H6.67129V170.058H6.55946V170.04H6.48457V170.022H6.40994V170.002H6.3167V169.983H6.24206V169.965H6.16742V169.945H6.11137V169.927H6.03674V169.909H5.9807V169.889H5.90605V169.87H5.85002V169.852H5.79398V169.832H5.73794V169.814H5.68191V169.795H5.62611V169.776H5.57006V169.757H5.51402V169.739H5.45798V169.719H5.42078V169.701H5.36475V169.682H5.3273V169.662H5.27126V169.644H5.23408V169.626H5.17802V169.606H5.14058V169.588H5.10339V169.569H5.04735V169.549H5.00991V169.531H4.97271V169.513H4.93526V169.493H4.89806V169.474H4.84204V169.456H4.80458V169.436H4.76739V169.418H4.72995V169.399H4.69275V169.38H4.6553V169.361H4.63671V169.343H4.59928V169.323H4.56208V169.305H4.52463V169.286H4.48743V169.267H4.44999V169.248H4.4128V169.23H4.39395V169.21H4.35675V169.192H4.31932V169.173H4.28212V169.153H4.26326V169.135H4.22608V169.117H4.18863V169.097H4.15144V169.078H4.13259V169.06H4.09539V169.04H4.0768V169.022H4.03936V169.004H4.02075V168.984H3.98332V168.965H3.94613V168.947H3.92728V168.927H3.89008V168.909H3.87123V168.89H3.83405V168.871H3.81544V168.852H3.7966V168.834H3.7594V168.814H3.7408V168.796H3.70336V168.777H3.68477V168.758H3.66591V168.739H3.62873V168.721H3.61012V168.701H3.57268V168.683H3.55409V168.664H3.53523V168.644H3.49804V168.626H3.47944V168.608H3.4606V168.588H3.44201V168.569H3.40481V168.551H3.38597V168.531H3.36736V168.513H3.32992V168.495H3.31133V168.475H3.29273V168.456H3.27413V168.438H3.25528V168.418H3.21808V168.4H3.19925V168.381H3.18064V168.362H3.16205V168.343H3.14346V168.325H3.1246V168.305H3.0874V168.287H3.06881V168.268H3.04997V168.248H3.03137V168.23H3.01277V168.212H2.99392V168.192H2.97532V168.174H2.95673V168.155H2.93813V168.135H2.91929V168.117H2.88209V168.099H2.86323V168.079H2.84464V168.06H2.82605V168.042H2.80744V168.022H2.78861V168.004H2.77001V167.985H2.75142V167.966H2.73256V167.947H2.71397V167.929H2.69536V167.909H2.67677V167.891H2.65792V167.872H2.63933V167.853H2.62074V167.834H2.60213V167.816H2.58329V167.796H2.56468V167.778H2.54609V167.739H2.52725V167.721H2.50866V167.703H2.49005V167.683H2.47146V167.665H2.4526V167.646H2.43401V167.626H2.41542V167.608H2.39657V167.59H2.37797V167.551H2.35937V167.533H2.34078V167.513H2.32194V167.495H2.30335V167.476H2.28474V167.457H2.26615V167.42H2.24729V167.4H2.2287V167.382H2.21009V167.363H2.19126V167.344H2.17266V167.307H2.15406V167.287H2.13546V167.269H2.11661V167.23H2.09802V167.212H2.07942V167.194H2.06057V167.174H2.04198V167.137H2.02339V167.117H2.00478V167.099H1.98594V167.061H1.96733V167.042H1.94874V167.004H1.93013V166.986H1.9113V166.967H1.8927V166.929H1.87411V166.911H1.85525V166.873H1.83666V166.854H1.81806V166.834H1.79946V166.798H1.78061V166.778H1.76202V166.741H1.74343V166.721H1.72457V166.685H1.70597V166.646H1.68738V166.628H1.66878V166.59H1.64994V166.571H1.63134V166.533H1.61274V166.515H1.59415V166.477H1.5753V166.439H1.5567V166.402H1.5381V166.382H1.51926V166.345H1.50066V166.307H1.48207V166.269H1.46347V166.251H1.44462V166.212H1.42602V166.176H1.40742V166.137H1.38858V166.099H1.36998V166.062H1.35139V166.024H1.33279V166.006H1.31394V165.968H1.29534V165.93H1.27674V165.893H1.25814V165.855H1.2393V165.816H1.22071V165.76H1.20211V165.723H1.18326V165.685H1.16466V165.647H1.14606V165.61H1.12746V165.553H1.10862V165.515H1.09003V165.477H1.07143V165.42H1.05258V165.384H1.03398V165.327H1.01538V165.289H0.996784V165.232H0.977944V165.176H0.959347V165.138H0.940749V165.081H0.922151V165.025H0.9033V164.968H0.884703V164.911H0.866105V164.855H0.847265V164.798H0.828668V164.742H0.81007V164.667H0.791473V164.61H0.77262V164.535H0.754023V164.479H0.735425V164.402H0.716585V164.309H0.697988V164.233H0.67939V164.158H0.660792V164.063H0.641953V163.97H0.623355V163.875H0.604757V163.762H0.585906V163.649H0.567309V163.497H0.548711V163.348H0.530114V163.14H0.511274V162.895H0.492676V7.43133H0.511274V7.18587H0.530114V6.97799H0.548711V6.84526H0.567309V6.695H0.585906V6.58228H0.604757V6.46958H0.623355V6.37442H0.641953V6.26173H0.660792V6.18659H0.67939V6.11145H0.697988V6.01628H0.716585V5.94116H0.735425V5.86602H0.754023V5.80841H0.77262V5.73329H0.791473V5.67818H0.81007V5.60306H0.828668V5.54545H0.847265V5.48783H0.866105V5.43275H0.884703V5.37512H0.9033V5.32004H0.922151V5.26242H0.940749V5.20483H0.959347V5.14973H0.977944V5.11216H0.996784V5.05455H1.01538V5.017H1.03398V4.96188H1.05258V4.92432H1.07143V4.86673H1.09003V4.82915H1.10862V4.77157H1.12746V4.73398H1.14606V4.69643H1.16466V4.65886H1.18326V4.60375H1.20211V4.56619H1.22071V4.52611H1.2393V4.48856H1.25814V4.45099H1.27674V4.41342H1.29534V4.37586H1.31394V4.33829H1.33279V4.30072H1.35139V4.26315H1.36998V4.22559H1.38858V4.18801H1.40742V4.15045H1.42602V4.13042H1.44462V4.09286H1.46347V4.05528H1.48207V4.01772H1.50066V4.00019H1.51926V3.96262H1.5381V3.92505H1.5567V3.88749H1.5753V3.86744H1.59415V3.82989H1.61274V3.79232H1.63134V3.77225H1.64994V3.7347H1.66878V3.71718H1.68738V3.67962H1.70597V3.65956H1.72457V3.622H1.74343V3.60448H1.76202V3.56693H1.78061V3.52682H1.79946V3.50929H1.81806V3.48927H1.83666V3.45168H1.85525V3.43415H1.87411V3.3966H1.8927V3.37656H1.9113V3.35901H1.93013V3.32146H1.94874V3.30142H1.96733V3.26386H1.98594V3.24632H2.00478V3.22629H2.02339V3.18872H2.04198V3.1687H2.06057V3.15117H2.07942V3.11358H2.09802V3.09356H2.11661V3.07603H2.13546V3.05599H2.15406V3.01842H2.17266V3.00089H2.19126V2.98085H2.21009V2.96332H2.2287V2.92575H2.24729V2.90573H2.26615V2.88819H2.28474V2.86816H2.30335V2.84813H2.32194V2.8306H2.34078V2.79302H2.35937V2.77299H2.37797V2.75546H2.39657V2.73542H2.41542V2.71789H2.43401V2.69787H2.4526V2.66028H2.47146V2.64275H2.49005V2.62273H2.50866V2.60519H2.52725V2.58514H2.54609V2.56761H2.56468V2.54759H2.58329V2.53005H2.60213V2.51003H2.62074V2.48999H2.63933V2.47245H2.65792V2.45243H2.67677V2.43489H2.69536V2.41485H2.71397V2.39732H2.73256V2.3773H2.75142V2.35975H2.77001V2.33972H2.78861V2.32218H2.80744V2.30216H2.82605V2.28463H2.84464V2.26458H2.86323V2.24704H2.88209V2.22702H2.90068V2.20949H2.91929V2.18945H2.93813V2.1694H2.95673V2.15188H2.97532V2.13183H2.99392V2.11432H3.03137V2.09427H3.04997V2.07675H3.06881V2.05669H3.0874V2.0392H3.10601V2.01913H3.1246V2.00161H3.14346V1.98156H3.18064V1.96406H3.19925V1.94399H3.21808V1.92647H3.23668V1.90642H3.25528V1.88892H3.27413V1.86887H3.31133V1.85135H3.32992V1.83128H3.34877V1.81126H3.38597V1.79373H3.40481V1.7737H3.4234V1.75617H3.44201V1.73612H3.47944V1.71859H3.49804V1.69856H3.51664V1.68103H3.53523V1.661H3.57268V1.64345H3.59129V1.62343H3.62873V1.60589H3.64732V1.58585H3.66591V1.56832H3.70336V1.5483H3.72197V1.53075H3.7594V1.51072H3.77799V1.49069H3.7966V1.47316H3.83405V1.45312H3.85264V1.43559H3.89008V1.41557H3.90868V1.39802H3.94613V1.378H3.96473V1.36046H4.00192V1.34042H4.03936V1.32289H4.05795V1.30286H4.09539V1.28533H4.11399V1.26529H4.15144V1.24775H4.17004V1.22773H4.20723V1.21019H4.24467V1.19015H4.28212V1.17261H4.30071V1.15259H4.33791V1.13255H4.37535V1.11502H4.4128V1.09499H4.4314V1.07746H4.46859V1.05742H4.50604V1.03988H4.54322V1.01986H4.58067V1.00232H4.61811V0.982298H4.6553V0.964761H4.69275V0.944722H4.72995V0.927184H4.76739V0.907162H4.78598V0.889626H4.84204V0.869586H4.87923V0.852048H4.91667V0.832026H4.95412V0.811987H4.9913V0.794449H5.04735V0.774427H5.0848V0.75689H5.12199V0.73685H5.15943V0.719313H5.21547V0.699291H5.25267V0.681755H5.3087V0.661714H5.34589V0.644178H5.40195V0.624156H5.43939V0.606618H5.49543V0.586595H5.55147V0.569059H5.60726V0.54902H5.6633V0.531482H5.71935V0.51146H5.77537V0.493923H5.83142V0.473883H5.88746V0.453826H5.94325V0.436324H6.0179V0.416266H6.07392V0.398747H6.14857V0.378691H6.20461V0.361188H6.29809V0.341131H6.37274V0.323611H6.44737V0.303554H6.54061V0.286051H6.61525V0.265995H6.72733V0.248475H6.83942V0.228435H6.93265V0.210915H7.06333V0.190859H7.21261V0.173357H7.38072V0.153299H7.62323V0.13326H8.03412V0.115723H238.007V0.13326H238.416V0.153299H238.68V0.173357H238.828V0.190859H238.976V0.210915H239.108V0.228435H239.22V0.248475H239.314V0.265995H239.426V0.286051H239.52V0.303554H239.594V0.323611H239.668V0.341131H239.76V0.361188H239.835V0.378691H239.892V0.398747H239.966V0.416266H240.023V0.436324H240.098V0.453826H240.152V0.473883H240.229V0.493923H240.284V0.51146H240.34V0.531482H240.395V0.54902H240.432V0.569059H240.49V0.586595H240.546V0.606618H240.6V0.624156H240.638V0.644178H240.696V0.661714H240.732V0.681755H240.786V0.699291H240.844V0.719313H240.882V0.73685H240.918V0.75689H240.976V0.774427H241.012V0.794449H241.05V0.811987H241.087V0.832026H241.124V0.852048H241.178V0.869586H241.218V0.889626H241.256V0.907162H241.293V0.927184H241.33V0.944722H241.367V0.964761H241.404V0.982298H241.442V1.00232H241.478V1.01986H241.516V1.03988H241.536V1.05742H241.573V1.07746H241.61V1.09499H241.647V1.11502H241.684V1.13255H241.702V1.15259H241.738V1.17261H241.776V1.19015H241.796V1.21019H241.834V1.22773H241.87V1.24775H241.908V1.26529H241.927V1.28533H241.965V1.30286H241.982V1.32289H242.02V1.34042H242.04V1.36046H242.076V1.378H242.094V1.39802H242.131V1.41557H242.168V1.43559H242.188V1.45312H242.226V1.47316H242.245V1.49069H242.262V1.51072H242.3V1.53075H242.32V1.5483H242.356V1.56832H242.374V1.58585H242.394V1.60589H242.431V1.62343H242.448V1.64345H242.485V1.661H242.506V1.68103H242.522V1.69856H242.542V1.71859H242.58V1.73612H242.6V1.75617H242.616V1.7737H242.654V1.79373H242.674V1.81126H242.692V1.83128H242.711V1.85135H242.748V1.86887H242.766V1.88892H242.786V1.90642H242.802V1.92647H242.822V1.94399H242.86V1.96406H242.88V1.98156H242.896V2.00161H242.917V2.01913H242.934V2.0392H242.954V2.05669H242.991V2.07675H243.008V2.09427H243.028V2.11432H243.046V2.13183H243.066V2.15188H243.082V2.1694H243.104V2.18945H243.12V2.20949H243.14V2.22702H243.157V2.24704H243.178V2.26458H243.195V2.28463H243.214V2.30216H243.252V2.32218H243.271V2.33972H243.288V2.35975H243.309V2.3773H243.326V2.39732H243.346V2.41485H243.363V2.43489H243.383V2.45243H243.4V2.48999H243.42V2.51003H243.438V2.53005H243.458V2.54759H243.475V2.56761H243.494V2.58514H243.512V2.60519H243.532V2.62273H243.551V2.64275H243.57V2.66028H243.589V2.68032H243.606V2.69787H243.626V2.71789H243.644V2.75546H243.663V2.77299H243.68V2.79302H243.7V2.81056H243.718V2.8306H243.738V2.84813H243.755V2.88819H243.776V2.90573H243.792V2.92575H243.812V2.94329H243.829V2.96332H243.85V3.00089H243.866V3.01842H243.886V3.03844H243.906V3.05599H243.924V3.09356H243.943V3.11358H243.96V3.13112H243.981V3.1687H243.998V3.18872H244.018V3.20876H244.035V3.22629H244.056V3.26386H244.072V3.2839H244.092V3.32146H244.11V3.33899H244.13V3.35901H244.146V3.3966H244.166V3.41413H244.184V3.45168H244.204V3.47174H244.223V3.48927H244.24V3.52682H244.261V3.54686H244.278V3.58443H244.298V3.622H244.316V3.64204H244.336V3.67962H244.352V3.69711H244.372V3.7347H244.39V3.75475H244.41V3.79232H244.426V3.80984H244.446V3.84739H244.464V3.88749H244.484V3.92505H244.501V3.94258H244.522V3.98017H244.538V4.01772H244.558V4.05528H244.578V4.07531H244.596V4.11288H244.616V4.15045H244.632V4.18801H244.653V4.22559H244.67V4.26315H244.69V4.28319H244.706V4.32074H244.727V4.35833H244.744V4.39588H244.764V4.43344H244.782V4.47102H244.802V4.50858H244.818V4.56619H244.838V4.60375H244.856V4.64131H244.876V4.6789H244.896V4.71645H244.912V4.77157H244.933V4.80912H244.95V4.84668H244.97V4.90429H244.988V4.94186H245.007V4.99946H245.024V5.03702H245.044V5.09214H245.062V5.12969H245.082V5.18728H245.098V5.2449H245.12V5.29998H245.136V5.35761H245.156V5.4127H245.173V5.47031H245.194V5.5254H245.211V5.58301H245.23V5.64061H245.25V5.71575H245.268V5.77086H245.287V5.846H245.304V5.90359H245.325V5.99875H245.342V6.07389H245.362V6.14903H245.378V6.2417H245.4V6.33685H245.416V6.43201H245.436V6.54472H245.454V6.63989H245.474V6.79015H245.491V6.94043H245.51V7.11075H245.528V7.35619H245.548V162.988H245.528V163.234H245.51V163.404H245.491V163.554H245.474V163.687H245.454V163.8H245.436V163.913H245.416V164.006H245.4V164.101H245.378V164.176H245.362V164.271H245.342V164.346H245.325V164.422H245.304V164.497H245.287V164.554H245.268V164.629H245.25V164.685H245.23V164.762H245.211V164.818H245.194V164.875H245.173V164.931H245.156V164.988H245.136V165.044H245.12V165.101H245.098V165.157H245.082V165.194H245.062V165.251H245.044V165.289H245.024V165.346H245.007V165.384H244.988V165.44H244.97V165.497H244.95V165.534H244.933V165.572H244.912V165.61H244.896V165.647H244.876V165.703H244.856V165.741H244.838V165.78H244.818V165.816H244.802V165.855H244.782V165.893H244.764V165.93H244.744V165.968H244.727V166.006H244.706V166.043H244.69V166.081H244.67V166.119H244.653V166.156H244.632V166.194H244.616V166.232H244.596V166.251H244.578V166.289H244.558V166.325H244.538V166.364H244.522V166.382H244.501V166.42H244.484V166.458H244.464V166.495H244.446V166.515H244.426V166.552H244.41V166.571H244.39V166.608H244.372V166.628H244.352V166.665H244.336V166.685H244.316V166.721H244.298V166.76H244.278V166.778H244.261V166.816H244.24V166.834H244.223V166.873H244.204V166.891H244.184V166.911H244.166V166.948H244.146V166.967H244.13V167.004H244.11V167.024H244.092V167.042H244.072V167.081H244.056V167.099H244.035V167.137H244.018V167.155H243.998V167.174H243.981V167.194H243.96V167.23H243.943V167.25H243.924V167.269H243.906V167.287H243.886V167.325H243.866V167.344H243.85V167.363H243.829V167.4H243.812V167.42H243.792V167.438H243.776V167.457H243.755V167.476H243.738V167.495H243.718V167.533H243.7V167.551H243.68V167.57H243.663V167.59H243.644V167.608H243.626V167.626H243.606V167.646H243.589V167.683H243.57V167.703H243.551V167.721H243.532V167.739H243.512V167.759H243.494V167.778H243.475V167.796H243.458V167.816H243.438V167.834H243.42V167.853H243.4V167.872H243.383V167.891H243.363V167.909H243.346V167.929H243.326V167.947H243.309V167.966H243.288V167.985H243.271V168.004H243.252V168.022H243.234V168.042H243.214V168.06H243.195V168.079H243.178V168.099H243.157V168.117H243.14V168.135H243.12V168.155H243.104V168.174H243.082V168.192H243.066V168.212H243.046V168.23H243.008V168.248H242.991V168.268H242.972V168.287H242.954V168.305H242.934V168.325H242.917V168.343H242.88V168.362H242.86V168.381H242.84V168.4H242.822V168.418H242.802V168.438H242.786V168.456H242.748V168.475H242.728V168.495H242.711V168.513H242.692V168.531H242.654V168.551H242.637V168.569H242.616V168.588H242.6V168.608H242.562V168.626H242.542V168.644H242.522V168.664H242.485V168.683H242.468V168.701H242.448V168.721H242.411V168.739H242.394V168.758H242.356V168.777H242.336V168.796H242.32V168.814H242.282V168.834H242.262V168.852H242.226V168.871H242.207V168.89H242.188V168.909H242.15V168.927H242.114V168.947H242.094V168.965H242.056V168.984H242.04V169.004H242.002V169.022H241.982V169.04H241.944V169.06H241.927V169.078H241.89V169.097H241.851V169.117H241.834V169.135H241.796V169.153H241.76V169.173H241.722V169.192H241.702V169.21H241.664V169.23H241.628V169.248H241.59V169.267H241.573V169.286H241.536V169.305H241.496V169.323H241.458V169.343H241.422V169.361H241.384V169.38H241.346V169.399H241.31V169.418H241.272V169.436H241.236V169.456H241.198V169.474H241.162V169.493H241.124V169.513H241.066V169.531H241.03V169.549H240.992V169.569H240.956V169.588H240.901V169.606H240.863V169.626H240.824V169.644H240.77V169.662H240.712V169.682H240.676V169.701H240.621V169.719H240.583V169.739H240.526V169.757H240.47V169.776H240.416V169.795H240.358V169.814H240.303V169.832H240.246V169.852H240.191V169.87H240.134V169.889H240.078V169.909H240.004V169.927H239.949V169.945H239.874V169.965H239.797V169.983H239.723V170.002H239.648V170.022H239.557V170.04H239.48V170.058H239.388V170.078H239.277V170.097H239.162V170.115H239.071V170.135H238.922V170.153H238.771V170.172H238.567V170.191H238.324V170.21" fill="#18204A" fill-opacity="0.8"/>
<path d="M146.663 170.195V195.365H99.3779V170.195H146.663Z" fill="#18204A" fill-opacity="0.2"/>
<path d="M91.4175 196.857V194.726H91.4368V194.5H91.456V194.312H91.4752V194.199H91.4925V194.085H91.5117V193.972H91.5309V193.878H91.5482V193.803H91.5674V193.726H91.5866V193.651H91.6059V193.576H91.6231V193.501H91.6425V193.444H91.6616V193.388H91.6789V193.33H91.6982V193.274H91.7174V193.199H91.7365V193.161H91.7539V193.106H91.7731V193.067H91.7923V193.011H91.8096V192.954H91.8288V192.916H91.848V192.86H91.8673V192.821H91.8845V192.785H91.9037V192.746H91.923V192.69H91.9402V192.653H91.9596V192.615H91.9787V192.577H91.9979V192.539H92.0153V192.502H92.0345V192.464H92.0536V192.425H92.071V192.389H92.0902V192.35H92.1094V192.312H92.1287V192.294H92.1459V192.256H92.1651V192.219H92.1844V192.181H92.2016V192.143H92.2209V192.124H92.2401V192.086H92.2593V192.049H92.2767V192.031H92.2958V191.993H92.315V191.973H92.3324V191.936H92.3516V191.898H92.3707V191.88H92.3901V191.841H92.4073V191.823H92.4265V191.785H92.4458V191.767H92.463V191.728H92.4822V191.71H92.5015V191.69H92.5207V191.653H92.538V191.635H92.5572V191.597H92.5764V191.577H92.5938V191.54H92.6129V191.52H92.6321V191.502H92.6514V191.484H92.6687V191.446H92.6878V191.427H92.7072V191.407H92.7244V191.371H92.7436V191.351H92.7629V191.332H92.7821V191.314H92.7994V191.276H92.8186V191.257H92.8378V191.238H92.8551V191.219H92.8743V191.201H92.8935V191.163H92.9127V191.144H92.93V191.125H92.9492V191.106H92.9685V191.088H92.9858V191.068H93.0049V191.031H93.0243V191.013H93.0434V190.993H93.0608V190.975H93.08V190.955H93.0992V190.936H93.1165V190.918H93.1357V190.9H93.1549V190.88H93.1741V190.862H93.1914V190.843H93.2106V190.823H93.2299V190.805H93.2471V190.785H93.2663V190.767H93.2856V190.73H93.3029V190.71H93.322V190.692H93.3414V190.672H93.3605V190.654H93.3779V190.635H93.3971V190.616H93.4336V190.597H93.4528V190.579H93.472V190.56H93.4912V190.541H93.5085V190.522H93.5277V190.502H93.547V190.484H93.5642V190.466H93.5834V190.447H93.6027V190.427H93.6219V190.409H93.6391V190.389H93.6585V190.371H93.695V190.353H93.7142V190.333H93.7334V190.314H93.7525V190.296H93.7699V190.278H93.7891V190.258H93.8256V190.239H93.8448V190.22H93.8641V190.201H93.8833V190.183H93.9007V190.164H93.9198V190.145H93.9564V190.126H93.9756V190.108H93.9947V190.088H94.0139V190.07H94.0505V190.05H94.0698V190.032H94.087V190.013H94.1255V189.995H94.1447V189.975H94.1619V189.957H94.2004V189.937H94.2178V189.918H94.2369V189.9H94.2561V189.882H94.2927V189.862H94.3118V189.843H94.3484V189.825H94.3676V189.805H94.3869V189.787H94.4233V189.767H94.4426V189.749H94.479V189.73H94.4983V189.712H94.5367V189.692H94.554V189.674H94.5732V189.654H94.6098V189.636H94.6289V189.617H94.6674V189.597H94.6847V189.579H94.7232V189.561H94.7597V189.542H94.7789V189.522H94.8154V189.504H94.8346V189.484H94.8711V189.466H94.8903V189.448H94.9288V189.429H94.9654V189.409H94.9845V189.391H95.0211V189.373H95.0575V189.353H95.0768V189.334H95.1152V189.315H95.1517V189.296H95.1709V189.278H95.2074V189.259H95.2459V189.24H95.2825V189.221H95.3016V189.202H95.3382V189.183H95.3765V189.165H95.4131V189.146H95.4496V189.127H95.488V189.108H95.5245V189.09H95.5438V189.07H95.5802V189.052H95.6187V189.032H95.6553V189.013H95.6936V188.995H95.7302V188.977H95.7687V188.957H95.8052V188.939H95.8416V188.919H95.8801V188.9H95.9358V188.882H95.9724V188.862H96.0107V188.844H96.0473V188.825H96.0858V188.807H96.1223V188.787H96.1607V188.769H96.2164V188.749H96.2529V188.731H96.3087V188.712H96.3472V188.694H96.3836V188.674H96.4394V188.656H96.4778V188.637H96.5143V188.618H96.57V188.599H96.6085V188.579H96.6643V188.561H96.72V188.543H96.7565V188.524H96.8122V188.504H96.8699V188.486H96.9063V188.466H96.9622V188.448H97.0179V188.429H97.0736V188.411H97.1313V188.391H97.187V188.373H97.2427V188.355H97.2985V188.335H97.3542V188.316H97.4099V188.297H97.4848V188.278H97.5407V188.26H97.5964V188.241H97.6713V188.222H97.727V188.203H97.802V188.183H97.8578V188.165H97.9327V188.147H98.0076V188.127H98.0826V188.108H98.1575V188.09H98.2324V188.072H98.3247V188.052H98.3997V188.034H98.4938V188.014H98.586V187.995H98.6803V187.977H98.7552V187.959H98.8667V187.939H98.9782V187.92H99.0896V187.902H99.203V187.882H99.3336V187.864H99.4816V187.844H99.6124V187.826H99.7815V187.807H99.9678V187.789H100.173V187.769H100.471V187.751H100.938V187.731H145.122V187.751H145.57V187.769H145.869V187.789H146.075V187.807H146.28V187.826H146.429V187.844H146.579V187.864H146.709V187.882H146.84V187.902H146.952V187.92H147.064V187.939H147.177V187.959H147.288V187.977H147.38V187.995H147.456V188.014H147.549V188.034H147.642V188.052H147.736V188.072H147.811V188.09H147.885V188.108H147.961V188.127H148.034V188.147H148.109V188.165H148.184V188.183H148.259V188.203H148.314V188.222H148.37V188.241H148.445V188.26H148.501V188.278H148.576V188.297H148.632V188.316H148.688V188.335H148.744V188.355H148.801V188.373H148.857V188.391H148.912V188.411H148.968V188.429H149.024V188.448H149.08V188.466H149.136V188.486H149.193V188.504H149.229V188.524H149.285V188.543H149.34V188.561H149.379V188.579H149.435V188.599H149.491V188.618H149.528V188.637H149.565V188.656H149.621V188.674H149.658V188.694H149.696V188.712H149.752V188.731H149.788V188.749H149.845V188.769H149.883V188.787H149.92V188.807H149.957V188.825H149.994V188.844H150.05V188.862H150.088V188.882H150.125V188.9H150.163V188.919H150.2V188.939H150.236V188.957H150.275V188.977H150.312V188.995H150.349V189.013H150.386V189.032H150.425V189.052H150.461V189.07H150.498V189.09H150.536V189.108H150.572V189.127H150.611V189.146H150.628V189.165H150.667V189.183H150.704V189.202H150.741V189.221H150.778V189.24H150.797V189.259H150.834V189.278H150.873V189.296H150.909V189.315H150.928V189.334H150.964V189.353H151.003V189.373H151.04V189.391H151.059V189.409H151.096V189.429H151.115V189.448H151.152V189.466H151.189V189.484H151.209V189.504H151.245V189.522H151.265V189.542H151.301V189.561H151.32V189.579H151.356V189.597H151.376V189.617H151.412V189.636H151.451V189.654H151.469V189.674H151.488V189.692H151.525V189.712H151.544V189.73H151.581V189.749H151.601V189.767H151.618V189.787H151.657V189.805H151.674V189.825H151.712V189.843H151.731V189.862H151.768V189.882H151.787V189.9H151.804V189.918H151.824V189.937H151.863V189.957H151.88V189.975H151.899V189.995H151.936V190.013H151.954V190.032H151.973V190.05H152.01V190.07H152.029V190.088H152.049V190.108H152.066V190.126H152.104V190.145H152.122V190.164H152.141V190.183H152.16V190.201H152.179V190.22H152.216V190.239H152.235V190.258H152.252V190.278H152.272V190.296H152.291V190.314H152.309V190.333H152.346V190.353H152.365V190.371H152.384V190.389H152.402V190.409H152.421V190.427H152.441V190.447H152.458V190.466H152.477V190.484H152.497V190.502H152.514V190.522H152.552V190.541H152.571V190.56H152.588V190.579H152.608V190.597H152.627V190.616H152.644V190.635H152.664V190.654H152.683V190.672H152.701V190.692H152.72V190.71H152.738V190.73H152.757V190.748H152.776V190.767H152.794V190.785H152.813V190.805H152.833V190.823H152.85V190.843H152.869V190.862H152.889V190.88H152.906V190.9H152.925V190.936H152.944V190.955H152.963V190.975H152.98V190.993H153V191.013H153.019V191.031H153.036V191.05H153.056V191.068H153.075V191.106H153.093V191.125H153.112V191.144H153.131V191.163H153.149V191.183H153.168V191.201H153.186V191.219H153.205V191.257H153.225V191.276H153.242V191.296H153.261V191.314H153.281V191.351H153.298V191.371H153.317V191.389H153.336V191.427H153.355V191.446H153.373V191.465H153.392V191.484H153.411V191.52H153.428V191.54H153.448V191.559H153.467V191.597H153.485V191.615H153.504V191.653H153.523V191.672H153.541V191.71H153.56V191.728H153.578V191.748H153.597V191.785H153.617V191.803H153.634V191.841H153.653V191.86H153.673V191.898H153.69V191.918H153.709V191.955H153.728V191.993H153.746V192.011H153.765V192.049H153.784V192.086H153.803V192.106H153.82V192.143H153.84V192.162H153.859V192.201H153.876V192.237H153.896V192.276H153.915V192.312H153.933V192.35H153.952V192.389H153.97V192.407H153.989V192.445H154.008V192.483H154.026V192.52H154.045V192.558H154.065V192.595H154.082V192.653H154.101V192.69H154.121V192.728H154.138V192.766H154.157V192.803H154.176V192.841H154.195V192.898H154.212V192.954H154.232V192.991H154.251V193.048H154.268V193.086H154.288V193.142H154.307V193.199H154.325V193.255H154.344V193.312H154.362V193.369H154.381V193.425H154.4V193.482H154.418V193.557H154.437V193.633H154.457V193.708H154.474V193.783H154.493V193.859H154.513V193.934H154.53V194.047H154.549V194.16H154.568V194.274H154.587V194.443H154.604V194.631H154.624V196.857" fill="#18204A"/>
<path d="M139.035 158.57C139.035 160.263 137.676 161.635 136 161.635C134.324 161.635 132.965 160.263 132.965 158.57C132.965 156.876 134.324 155.504 136 155.504C137.676 155.504 139.035 156.876 139.035 158.57Z" fill="#18204A" fill-opacity="0.05"/>
<path d="M126.055 158.57C126.055 160.263 124.696 161.635 123.02 161.635C121.343 161.635 119.984 160.263 119.984 158.57C119.984 156.876 121.343 155.504 123.02 155.504C124.696 155.504 126.055 156.876 126.055 158.57Z" fill="#18204A" fill-opacity="0.05"/>
<path d="M113.085 158.57C113.085 160.263 111.726 161.635 110.05 161.635C108.373 161.635 107.015 160.263 107.015 158.57C107.015 156.876 108.373 155.504 110.05 155.504C111.726 155.504 113.085 156.876 113.085 158.57Z" fill="#18204A" fill-opacity="0.05"/>
<path d="M7.64453 11.1688C7.64453 9.60696 8.89815 8.34082 10.4445 8.34082H235.477C237.024 8.34082 238.277 9.60696 238.277 11.1688V140.393C238.277 141.956 237.024 143.221 235.477 143.221H10.4445C8.89815 143.221 7.64453 141.956 7.64453 140.393V11.1688Z" fill="#F4F4F4"/>
<path d="M22.4867 45.1243V45.1051H22.2999V45.086H22.1693V45.0692H22.0574V45.0501H21.9268V45.0309H21.852V45.0118H21.7774V44.9925H21.7027V44.9734H21.628V44.9542H21.5533V44.9375H21.4787V44.9183H21.4227V44.8992H21.3668V44.88H21.3293V44.8609H21.2733V44.8418H21.2174V44.8226H21.1799V44.8035H21.124V44.7867H21.068V44.7676H21.0305V44.7483H20.9747V44.7292H20.9374V44.71H20.8999V44.6909H20.8628V44.6717H20.8253V44.6526H20.788V44.6358H20.7507V44.6167H20.7134V44.5975H20.6759V44.5784H20.6387V44.5591H20.6013V44.5401H20.564V44.5208H20.5453V44.5017H20.508V44.4849H20.4707V44.4658H20.4522V44.4466H20.4147V44.4275H20.3774V44.4084H20.3587V44.3892H20.3213V44.3699H20.3028V44.3509H20.2653V44.334H20.228V44.3149H20.2093V44.2959H20.1907V44.2766H20.1534V44.2575H20.1347V44.2383H20.1159V44.2192H20.0787V44.2H20.06V44.1833H20.0413V44.1641H20.004V44.145H19.9853V44.1258H19.9665V44.1067H19.9294V44.0874H19.9107V44.0683H19.8919V44.0491H19.8547V44.0324H19.8359V44.0132H19.8173V43.9941H19.7988V43.9749H19.78V43.9558H19.7613V43.9366H19.7428V43.9175H19.724V43.8982H19.7053V43.8816H19.6867V43.8623H19.6494V43.8432H19.6307V43.8241H19.6119V43.8049H19.5934V43.7858H19.5747V43.7666H19.5559V43.7475H19.5373V43.7307H19.5188V43.7116H19.5V43.6924H19.4813V43.6733H19.4625V43.654H19.444V43.6157H19.4253V43.5966H19.4067V43.5798H19.3882V43.5607H19.3694V43.5415H19.3507V43.5224H19.3319V43.5032H19.3134V43.4841H19.2947V43.4648H19.2759V43.4458H19.2573V43.4098H19.2388V43.3908H19.22V43.3715H19.2013V43.3332H19.1825V43.3141H19.164V43.2973H19.1453V43.259H19.1267V43.2399H19.1079V43.2207H19.0894V43.1823H19.0707V43.1632H19.0519V43.1464H19.0334V43.1081H19.0147V43.089H18.996V43.0698H18.9773V43.0315H18.9588V43.0124H18.94V42.9765H18.9213V42.9381H18.9025V42.9189H18.884V42.8806H18.8654V42.8447H18.8467V42.8256H18.8279V42.7873H18.8094V42.7489H18.7907V42.7299H18.7719V42.6939H18.7534V42.6556H18.7347V42.6173H18.716V42.579H18.6973V42.5431H18.6788V42.5047H18.66V42.4664H18.6413V42.4281H18.6227V42.3922H18.604V42.3539H18.5854V42.3155H18.5667V42.2772H18.5479V42.2222H18.5294V42.1647H18.5107V42.1264H18.4919V42.0714H18.4733V42.0138H18.4548V41.9755H18.436V41.9205H18.4173V41.8629H18.3988V41.8055H18.38V41.7313H18.3613V41.6546H18.3427V41.5996H18.324V41.523H18.3054V41.4488H18.2867V41.3721H18.2679V41.2405H18.2494V41.1279H18.2307V40.9961H18.2119V40.8453H18.1933V40.5628H18.1748V23.8589H18.1933V23.5764H18.2119V23.4255H18.2307V23.3105H18.2494V23.1788H18.2679V23.0662H18.2867V22.9921H18.3054V22.9155H18.324V22.8412H18.3427V22.7646H18.3613V22.6904H18.38V22.6137H18.3988V22.5587H18.4173V22.5204H18.436V22.4628H18.4548V22.4078H18.4733V22.3503H18.4919V22.312H18.5107V22.257H18.5294V22.1994H18.5479V22.1611H18.5667V22.1229H18.5854V22.087H18.604V22.0485H18.6227V22.0104H18.6413V21.9552H18.66V21.9169H18.6788V21.8786H18.6973V21.8403H18.716V21.8043H18.7347V21.766H18.7534V21.7277H18.7719V21.7086H18.7907V21.6703H18.8094V21.6344H18.8279V21.6152H18.8467V21.577H18.8654V21.5577H18.884V21.5194H18.9025V21.4835H18.9213V21.4644H18.94V21.4261H18.9588V21.3878H18.9773V21.3686H18.996V21.3326H19.0147V21.3135H19.0334V21.2943H19.0519V21.256H19.0707V21.2369H19.0894V21.2177H19.1079V21.1818H19.1267V21.1627H19.1453V21.1434H19.164V21.1053H19.1825V21.086H19.2013V21.0668H19.22V21.0309H19.2388V21.0118H19.2573V20.9927H19.2759V20.9735H19.2947V20.9544H19.3134V20.9352H19.3319V20.9161H19.3507V20.8802H19.3694V20.8609H19.3882V20.8418H19.4067V20.8226H19.4253V20.8035H19.444V20.7843H19.4625V20.7676H19.4813V20.7484H19.5V20.7293H19.5188V20.7101H19.5373V20.6717H19.5747V20.6526H19.5934V20.6334H19.6119V20.6167H19.6307V20.5975H19.6494V20.5784H19.668V20.5593H19.6867V20.5401H19.7053V20.521H19.724V20.5018H19.7428V20.4827H19.78V20.4659H19.7988V20.4468H19.8173V20.4275H19.8359V20.4084H19.8547V20.3892H19.8734V20.3701H19.8919V20.3509H19.9294V20.3318H19.948V20.315H19.9665V20.2959H20.004V20.2767H20.0228V20.2576H20.0413V20.2383H20.0787V20.2193H20.0974V20.2H20.1159V20.1809H20.1534V20.1641H20.1719V20.145H20.1907V20.1258H20.228V20.1067H20.2465V20.0876H20.284V20.0684H20.3028V20.0491H20.34V20.0301H20.3774V20.0132H20.3959V19.9941H20.4334V19.9751H20.4707V19.9558H20.4893V19.9367H20.5265V19.9175H20.564V19.8984H20.5828V19.8792H20.62V19.8625H20.6574V19.8433H20.6947V19.8242H20.732V19.805H20.7693V19.7859H20.8068V19.7666H20.844V19.7475H20.8813V19.7283H20.9374V19.7116H20.9747V19.6924H21.012V19.6733H21.0493V19.6541H21.1053V19.635H21.1427V19.6158H21.1987V19.5967H21.2547V19.5776H21.3105V19.5608H21.348V19.5417H21.404V19.5224H21.4599V19.5033H21.5347V19.4841H21.6093V19.465H21.6653V19.4458H21.7399V19.4267H21.8147V19.4099H21.8893V19.3908H22.0014V19.3716H22.132V19.3525H22.2439V19.3332H22.3745V19.3142H22.636V19.2949H223.264V19.3142H223.544V19.3332H223.658V19.3525H223.789V19.3716H223.9V19.3908H224.012V19.4099H224.087V19.4267H224.16V19.4458H224.237V19.465H224.31V19.4841H224.386V19.5033H224.44V19.5224H224.498V19.5417H224.552V19.5608H224.61V19.5776H224.647V19.5967H224.702V19.6158H224.758V19.635H224.815V19.6541H224.85V19.6733H224.908V19.6924H224.946V19.7116H224.983V19.7283H225.018V19.7475H225.058V19.7666H225.095V19.7859H225.133V19.805H225.168V19.8242H225.206V19.8433H225.244V19.8625H225.282V19.8792H225.318V19.8984H225.356V19.9175H225.374V19.9367H225.413V19.9558H225.448V19.9751H225.468V19.9941H225.506V20.0132H225.543V20.0301H225.562V20.0491H225.598V20.0684H225.616V20.0876H225.654V20.1067H225.692V20.1258H225.711V20.145H225.731V20.1641H225.766V20.1809H225.784V20.2H225.804V20.2193H225.842V20.2383H225.861V20.2576H225.879V20.2767H225.916V20.2959H225.934V20.315H225.954V20.3318H225.991V20.3509H226.01V20.3701H226.026V20.3892H226.046V20.4084H226.064V20.4275H226.102V20.4468H226.122V20.4659H226.14V20.4827H226.159V20.5018H226.176V20.521H226.194V20.5401H226.214V20.5593H226.234V20.5784H226.252V20.5975H226.271V20.6167H226.309V20.6334H226.326V20.6526H226.344V20.6717H226.364V20.691H226.382V20.7101H226.402V20.7293H226.42V20.7676H226.439V20.7843H226.458V20.8035H226.474V20.8226H226.494V20.8418H226.512V20.8609H226.532V20.8802H226.55V20.8992H226.57V20.9161H226.589V20.9352H226.607V20.9735H226.624V20.9927H226.642V21.0118H226.662V21.0309H226.682V21.0501H226.7V21.086H226.719V21.1053H226.738V21.1244H226.757V21.1627H226.774V21.1818H226.792V21.201H226.812V21.2369H226.83V21.256H226.85V21.2752H226.868V21.3135H226.887V21.3326H226.906V21.3519H226.922V21.3878H226.942V21.4069H226.96V21.4452H226.98V21.4835H226.998V21.5027H227.018V21.5387H227.037V21.577H227.055V21.5961H227.072V21.6344H227.092V21.6703H227.11V21.6894H227.13V21.7277H227.148V21.766H227.167V21.8043H227.186V21.8403H227.205V21.8786H227.222V21.9169H227.24V21.9552H227.26V21.9911H227.278V22.0295H227.298V22.0678H227.316V22.1061H227.335V22.142H227.354V22.1803H227.37V22.2377H227.39V22.2929H227.408V22.3503H227.428V22.3886H227.447V22.4438H227.466V22.5012H227.485V22.5587H227.503V22.5946H227.52V22.6711H227.54V22.7454H227.558V22.822H227.578V22.8962H227.596V22.9729H227.615V23.028H227.634V23.1428H227.653V23.2746H227.67V23.3872H227.688V23.5188H227.708V23.7823H227.726V40.6562H227.708V40.9195H227.688V41.0345H227.67V41.1663H227.653V41.2788H227.634V41.3914H227.615V41.4679H227.596V41.5421H227.578V41.6187H227.558V41.693H227.54V41.7505H227.52V41.8247H227.503V41.8822H227.485V41.9396H227.466V41.9755H227.447V42.033H227.428V42.0904H227.408V42.1456H227.39V42.1839H227.37V42.2413H227.354V42.2772H227.335V42.3155H227.316V42.3539H227.298V42.409H227.278V42.4472H227.26V42.4855H227.24V42.5238H227.222V42.5597H227.205V42.5981H227.186V42.6364H227.167V42.6747H227.148V42.7106H227.13V42.7299H227.11V42.7682H227.092V42.8065H227.072V42.8256H227.055V42.8615H227.037V42.8806H227.018V42.9189H226.998V42.9572H226.98V42.9765H226.96V43.0124H226.942V43.0507H226.922V43.0698H226.906V43.089H226.887V43.1273H226.868V43.1464H226.85V43.1632H226.83V43.2016H226.812V43.2207H226.792V43.259H226.774V43.2782H226.757V43.2973H226.738V43.3332H226.719V43.3523H226.7V43.3715H226.682V43.4098H226.662V43.4289H226.642V43.4458H226.624V43.4648H226.607V43.4841H226.589V43.5032H226.57V43.5224H226.55V43.5415H226.532V43.5607H226.512V43.5966H226.494V43.6157H226.474V43.635H226.458V43.654H226.439V43.6733H226.42V43.6924H226.402V43.7116H226.382V43.7307H226.364V43.7475H226.344V43.7666H226.326V43.7858H226.309V43.8049H226.29V43.8241H226.271V43.8432H226.252V43.8623H226.234V43.8816H226.214V43.8982H226.194V43.9175H226.159V43.9366H226.14V43.9558H226.122V43.9749H226.102V43.9941H226.084V44.0132H226.064V44.0324H226.046V44.0491H226.026V44.0683H225.991V44.0874H225.972V44.1067H225.954V44.1258H225.916V44.145H225.896V44.1641H225.879V44.1833H225.842V44.2H225.823V44.2192H225.804V44.2383H225.766V44.2575H225.746V44.2766H225.731V44.2959H225.692V44.3149H225.674V44.334H225.636V44.3509H225.616V44.3699H225.581V44.3892H225.543V44.4084H225.524V44.4275H225.486V44.4466H225.468V44.4658H225.431V44.4849H225.394V44.5017H225.374V44.5208H225.336V44.5401H225.298V44.5591H225.282V44.5784H225.226V44.5975H225.188V44.6167H225.15V44.6358H225.114V44.6526H225.076V44.6717H225.038V44.6909H225V44.71H224.965V44.7292H224.926V44.7483H224.888V44.7676H224.834V44.7867H224.778V44.8035H224.74V44.8226H224.685V44.8418H224.628V44.8609H224.59V44.88H224.535V44.8992H224.478V44.9183H224.422V44.9375H224.348V44.9542H224.272V44.9734H224.199V44.9925H224.122V45.0118H224.068V45.0309H223.974V45.0501H223.862V45.0692H223.732V45.086H223.62V45.1051H223.434V45.1243" fill="#18204A" fill-opacity="0.3"/>
<path d="M22.464 85.791V85.7714H22.2027V85.7539H22.0907V85.7345H21.9601V85.715H21.8293V85.6975H21.736V85.678H21.6612V85.6585H21.5867V85.6409H21.5121V85.6214H21.4373V85.6019H21.3626V85.5844H21.3066V85.5649H21.2507V85.5453H21.1947V85.5278H21.1387V85.5083H21.1013V85.4888H21.0453V85.4713H20.9893V85.4517H20.9333V85.4324H20.896V85.4147H20.84V85.3953H20.8027V85.3758H20.7653V85.3583H20.728V85.3388H20.6907V85.3193H20.6533V85.3017H20.616V85.2822H20.5786V85.2627H20.5413V85.2432H20.5041V85.2256H20.4666V85.2061H20.4293V85.1866H20.4106V85.1691H20.3733V85.1496H20.336V85.1302H20.3173V85.1125H20.28V85.0932H20.2427V85.0736H20.224V85.056H20.1867V85.0366H20.1493V85.0171H20.1306V84.9995H20.0933V84.98H20.0746V84.9605H20.0373V84.943H20.0186V84.9235H20.0001V84.904H19.9626V84.8864H19.944V84.8669H19.9253V84.8474H19.888V84.8299H19.8693V84.8104H19.8507V84.7908H19.8132V84.7733H19.7947V84.7538H19.776V84.7344H19.7387V84.7169H19.72V84.6974H19.7013V84.6779H19.6826V84.6603H19.664V84.6408H19.6453V84.6213H19.6266V84.6038H19.5893V84.5843H19.5706V84.5647H19.5521V84.5472H19.5333V84.5277H19.5146V84.5082H19.496V84.4907H19.4773V84.4711H19.4587V84.4516H19.44V84.4341H19.4213V84.4147H19.384V84.3777H19.3652V84.3582H19.3467V84.3386H19.328V84.3211H19.3092V84.3016H19.2907V84.2821H19.272V84.2645H19.2533V84.245H19.2347V84.2255H19.216V84.208H19.1973V84.169H19.1786V84.1514H19.1601V84.1319H19.1413V84.1125H19.1226V84.0949H19.1041V84.0754H19.0853V84.056H19.0666V84.0189H19.048V83.9994H19.0293V83.9819H19.0107V83.9429H18.992V83.9253H18.9733V83.9058H18.9547V83.8688H18.936V83.8493H18.9172V83.8297H18.8987V83.7927H18.88V83.7732H18.8612V83.7557H18.8427V83.7168H18.824V83.6973H18.8052V83.6602H18.7867V83.6232H18.768V83.6036H18.7493V83.5666H18.7306V83.5276H18.7121V83.51H18.6933V83.471H18.6746V83.4535H18.6561V83.4146H18.6373V83.3775H18.6186V83.358H18.6V83.321H18.5813V83.2839H18.5626V83.2449H18.544V83.2079H18.5253V83.1708H18.5067V83.1143H18.488V83.0754H18.4695V83.0383H18.4507V83.0013H18.432V82.9623H18.4132V82.9252H18.3947V82.8882H18.376V82.8316H18.3572V82.775H18.3387V82.7186H18.32V82.6796H18.3013V82.623H18.2826V82.5665H18.2641V82.5294H18.2453V82.4729H18.2266V82.3969H18.2081V82.3228H18.1893V82.2468H18.1706V82.1707H18.152V82.0948H18.1333V82.0207H18.1146V81.9076H18.096V81.7749H18.0773V81.6619H18.0587V81.4923H18.04V81.2096H18.0215V56.4546H18.04V56.1718H18.0587V56.0217H18.0773V55.8891H18.096V55.7761H18.1146V55.6435H18.1333V55.5694H18.152V55.5128H18.1706V55.4369H18.1893V55.3608H18.2081V55.2867H18.2266V55.2107H18.2453V55.1541H18.2641V55.0977H18.2826V55.0606H18.3013V55.0041H18.32V54.9475H18.3387V54.891H18.3572V54.8519H18.376V54.7955H18.3947V54.7585H18.4132V54.7019H18.432V54.6649H18.4507V54.6258H18.4695V54.5888H18.488V54.5517H18.5067V54.5127H18.5253V54.4757H18.544V54.4386H18.5626V54.3997H18.5813V54.3627H18.6V54.3256H18.6186V54.2866H18.6373V54.2691H18.6561V54.2301H18.6746V54.2105H18.6933V54.1735H18.7121V54.1365H18.7306V54.1171H18.7493V54.08H18.768V54.041H18.7867V54.0235H18.8052V53.9845H18.824V53.9474H18.8427V53.9279H18.8612V53.9104H18.88V53.8713H18.8987V53.8538H18.9172V53.8343H18.936V53.7972H18.9547V53.7779H18.9733V53.7584H18.992V53.7213H19.0107V53.7018H19.0293V53.6843H19.048V53.6452H19.0666V53.6277H19.0853V53.6082H19.1041V53.5887H19.1226V53.5711H19.1413V53.5321H19.1601V53.5146H19.1786V53.4951H19.1973V53.4757H19.216V53.458H19.2347V53.4386H19.2533V53.4191H19.272V53.4016H19.2907V53.3821H19.3092V53.3626H19.328V53.3255H19.3467V53.306H19.3652V53.2885H19.384V53.269H19.4027V53.2495H19.4213V53.2319H19.44V53.2124H19.4587V53.1929H19.496V53.1754H19.5146V53.1558H19.5333V53.1365H19.5521V53.1188H19.5706V53.0994H19.5893V53.0799H19.6081V53.0624H19.6266V53.0429H19.6453V53.0234H19.664V53.0058H19.7013V52.9863H19.72V52.9668H19.7387V52.9493H19.7572V52.9297H19.7947V52.9102H19.8132V52.8927H19.832V52.8732H19.8693V52.8537H19.888V52.8361H19.9067V52.8166H19.944V52.7973H19.9626V52.7796H19.9813V52.7602H20.0186V52.7407H20.0373V52.7232H20.0561V52.7036H20.0933V52.6841H20.1121V52.6646H20.1493V52.6471H20.1867V52.6276H20.2052V52.6081H20.2427V52.5905H20.2612V52.571H20.2987V52.5515H20.336V52.534H20.3547V52.5145H20.392V52.4951H20.4293V52.4774H20.448V52.458H20.4853V52.4385H20.5226V52.421H20.5601V52.4015H20.5973V52.382H20.6347V52.3644H20.6907V52.3449H20.728V52.3254H20.7653V52.3079H20.8027V52.2884H20.84V52.2688H20.8773V52.2513H20.9333V52.2318H20.9706V52.2123H21.0266V52.1947H21.0827V52.1752H21.1387V52.1559H21.176V52.1382H21.232V52.1187H21.288V52.0993H21.344V52.0818H21.4186V52.0623H21.4933V52.0427H21.568V52.0252H21.6427V52.0057H21.7173V51.9862H21.792V51.9687H21.9226V51.9491H22.0532V51.9296H22.1653V51.9121H22.3893V51.8926H119.83V51.9121H120.054V51.9296H120.165V51.9491H120.297V51.9687H120.409V51.9862H120.501V52.0057H120.577V52.0252H120.65V52.0427H120.725V52.0623H120.801V52.0818H120.874V52.0993H120.93V52.1187H120.986V52.1382H121.042V52.1559H121.081V52.1752H121.136V52.1947H121.192V52.2123H121.229V52.2318H121.285V52.2513H121.341V52.2688H121.38V52.2884H121.416V52.3079H121.453V52.3254H121.492V52.3449H121.528V52.3644H121.565V52.382H121.604V52.4015H121.64V52.421H121.696V52.4385H121.733V52.458H121.752V52.4774H121.789V52.4951H121.827V52.5145H121.845V52.534H121.883V52.5515H121.92V52.571H121.939V52.5905H121.976V52.6081H122.013V52.6276H122.032V52.6471H122.069V52.6646H122.107V52.6841H122.125V52.7036H122.163V52.7232H122.181V52.7407H122.2V52.7602H122.237V52.7796H122.256V52.7973H122.275V52.8166H122.312V52.8361H122.331V52.8537H122.349V52.8732H122.387V52.8927H122.405V52.9102H122.424V52.9297H122.461V52.9493H122.48V52.9668H122.499V52.9863H122.517V53.0058H122.536V53.0234H122.555V53.0429H122.592V53.0624H122.611V53.0799H122.629V53.0994H122.648V53.1188H122.667V53.1365H122.685V53.1558H122.704V53.1754H122.723V53.1929H122.742V53.2124H122.76V53.2319H122.798V53.2495H122.816V53.269H122.835V53.2885H122.854V53.3255H122.872V53.345H122.891V53.3626H122.91V53.3821H122.928V53.4016H122.947V53.4191H122.966V53.4386H122.984V53.458H123.003V53.4757H123.022V53.4951H123.04V53.5321H123.059V53.5516H123.078V53.5711H123.096V53.5887H123.115V53.6082H123.134V53.6277H123.152V53.6647H123.171V53.6843H123.19V53.7018H123.208V53.7408H123.227V53.7584H123.246V53.7779H123.264V53.8148H123.283V53.8343H123.302V53.8538H123.32V53.8908H123.339V53.9104H123.358V53.9279H123.376V53.9669H123.395V53.9845H123.414V54.0235H123.431V54.0605H123.451V54.08H123.47V54.1171H123.487V54.1541H123.507V54.1735H123.526V54.2105H123.543V54.2301H123.563V54.2691H123.582V54.3061H123.599V54.3256H123.619V54.3627H123.638V54.3997H123.655V54.4386H123.675V54.4757H123.694V54.5127H123.711V54.5693H123.731V54.6083H123.75V54.6454H123.767V54.6824H123.787V54.7214H123.806V54.7585H123.823V54.7955H123.843V54.8519H123.862V54.9085H123.879V54.9651H123.899V55.0041H123.918V55.0606H123.935V55.1172H123.955V55.1736H123.974V55.2302H123.991V55.3043H124.011V55.3608H124.03V55.4369H124.047V55.5128H124.067V55.5869H124.086V55.663H124.103V55.7955H124.122V55.9281H124.142V56.0413H124.159V56.2283H124.178V81.4552H124.159V81.6249H124.142V81.7555H124.122V81.888H124.103V82.0012H124.086V82.0771H124.067V82.1532H124.047V82.2273H124.03V82.3033H124.011V82.3794H123.991V82.4534H123.974V82.5099H123.955V82.5665H123.935V82.623H123.918V82.6621H123.899V82.7186H123.879V82.775H123.862V82.8121H123.843V82.8686H123.823V82.9252H123.806V82.9623H123.787V83.0013H123.767V83.0383H123.75V83.0754H123.731V83.1143H123.711V83.1513H123.694V83.1884H123.675V83.2274H123.655V83.2644H123.638V83.321H123.619V83.3405H123.599V83.3775H123.582V83.4146H123.563V83.4341H123.543V83.471H123.526V83.51H123.507V83.5276H123.487V83.5666H123.47V83.5841H123.451V83.6232H123.431V83.6602H123.414V83.6797H123.395V83.7168H123.376V83.7363H123.358V83.7732H123.339V83.7927H123.32V83.8122H123.302V83.8493H123.283V83.8688H123.264V83.8863H123.246V83.9253H123.227V83.9429H123.208V83.9624H123.19V83.9994H123.171V84.0189H123.152V84.0385H123.134V84.0754H123.115V84.0949H123.096V84.1125H123.078V84.1319H123.059V84.1514H123.04V84.169H123.022V84.1885H123.003V84.208H122.984V84.245H122.966V84.2645H122.947V84.2821H122.928V84.3016H122.91V84.3211H122.891V84.3386H122.872V84.3582H122.854V84.3777H122.835V84.3952H122.816V84.4147H122.798V84.4341H122.779V84.4516H122.76V84.4711H122.742V84.4907H122.723V84.5082H122.704V84.5277H122.685V84.5472H122.667V84.5647H122.648V84.5843H122.611V84.6038H122.592V84.6213H122.573V84.6408H122.555V84.6603H122.536V84.6779H122.517V84.6974H122.499V84.7169H122.48V84.7344H122.443V84.7538H122.424V84.7733H122.405V84.7908H122.368V84.8104H122.349V84.8299H122.331V84.8474H122.293V84.8669H122.275V84.8864H122.256V84.904H122.219V84.9235H122.2V84.943H122.163V84.9605H122.144V84.98H122.125V84.9995H122.088V85.0171H122.051V85.0366H122.032V85.056H121.995V85.0736H121.976V85.0932H121.939V85.1125H121.901V85.1302H121.883V85.1496H121.845V85.1691H121.808V85.1866H121.789V85.2061H121.752V85.2256H121.716V85.2432H121.677V85.2627H121.64V85.2822H121.604V85.3017H121.565V85.3193H121.528V85.3388H121.492V85.3583H121.436V85.3758H121.397V85.3953H121.36V85.4147H121.324V85.4324H121.268V85.4517H121.229V85.4713H121.173V85.4888H121.117V85.5083H121.061V85.5278H121.025V85.5453H120.969V85.5649H120.913V85.5844H120.857V85.6019H120.781V85.6214H120.706V85.6409H120.633V85.6585H120.557V85.678H120.482V85.6975H120.37V85.715H120.258V85.7345H120.129V85.7539H120.017V85.7714H119.754V85.791" fill="#18204A" fill-opacity="0.3"/>
<path d="M135.184 85.7898V85.7716H134.943V85.7515H134.811V85.7333H134.681V85.7152H134.569V85.695H134.457V85.6769H134.382V85.6586H134.308V85.6385H134.252V85.6203H134.176V85.6022H134.102V85.582H134.028V85.5639H133.972V85.5458H133.934V85.5256H133.878V85.5075H133.822V85.4892H133.767V85.4691H133.729V85.4509H133.673V85.4328H133.617V85.4126H133.579V85.3945H133.543V85.3762H133.505V85.3562H133.467V85.3379H133.429V85.3178H133.393V85.2996H133.355V85.2815H133.299V85.2613H133.261V85.2432H133.225V85.2251H133.187V85.2049H133.169V85.1868H133.131V85.1685H133.094V85.1484H133.075V85.1302H133.038V85.1121H133V85.0919H132.982V85.0738H132.944V85.0555H132.926V85.0355H132.888V85.0172H132.852V84.9991H132.832V84.9789H132.796V84.9608H132.776V84.9427H132.74V84.9225H132.72V84.9044H132.702V84.8842H132.664V84.8661H132.646V84.8478H132.628V84.8278H132.59V84.8095H132.57V84.7914H132.552V84.7712H132.514V84.7531H132.496V84.7349H132.478V84.7148H132.44V84.6965H132.423V84.6784H132.402V84.6582H132.385V84.6401H132.367V84.622H132.347V84.6018H132.329V84.5837H132.311V84.5655H132.291V84.5454H132.273V84.5271H132.255V84.509H132.217V84.4888H132.199V84.4707H132.179V84.4525H132.161V84.4324H132.141V84.4142H132.123V84.3941H132.105V84.3758H132.085V84.3577H132.067V84.3375H132.049V84.3194H132.029V84.3013H132.011V84.263H131.993V84.2448H131.973V84.2247H131.955V84.2064H131.937V84.1883H131.917V84.1681H131.899V84.15H131.881V84.1318H131.861V84.1117H131.843V84.0935H131.825V84.0551H131.805V84.037H131.787V84.0189H131.769V83.9806H131.75V83.9604H131.731V83.9423H131.712V83.9038H131.694V83.8857H131.676V83.8676H131.656V83.8293H131.638V83.8111H131.62V83.791H131.6V83.7547H131.582V83.7344H131.564V83.7163H131.544V83.678H131.526V83.6417H131.508V83.6215H131.488V83.5853H131.47V83.547H131.452V83.5267H131.432V83.4904H131.414V83.4521H131.396V83.434H131.376V83.3957H131.358V83.3573H131.34V83.3391H131.32V83.3009H131.302V83.2646H131.282V83.2263H131.264V83.1879H131.246V83.1516H131.226V83.1133H131.208V83.0567H131.19V83.0185H131.17V82.9801H131.152V82.9439H131.134V82.9056H131.114V82.849H131.096V82.8107H131.079V82.7543H131.058V82.6977H131.041V82.6413H131.023V82.603H131.003V82.5465H130.985V82.49H130.967V82.4336H130.947V82.3589H130.929V82.2843H130.911V82.2076H130.891V82.133H130.873V82.0563H130.855V81.9636H130.835V81.8506H130.817V81.7175H130.797V81.5864H130.779V81.3605H130.761V56.3037H130.779V56.0779H130.797V55.9649H130.817V55.8317H130.835V55.7006H130.855V55.6059H130.873V55.5312H130.891V55.4748H130.911V55.3982H130.929V55.3235H130.947V55.2469H130.967V55.1722H130.985V55.1339H131.003V55.0775H131.023V55.0209H131.041V54.9645H131.058V54.9262H131.079V54.8696H131.096V54.8132H131.114V54.7769H131.134V54.7204H131.152V54.6821H131.17V54.6438H131.19V54.6075H131.208V54.5691H131.226V54.5308H131.246V54.4925H131.264V54.4562H131.282V54.4178H131.302V54.3795H131.32V54.3432H131.34V54.3049H131.358V54.2868H131.376V54.2484H131.396V54.2101H131.414V54.192H131.432V54.1537H131.452V54.1174H131.47V54.0971H131.488V54.0588H131.508V54.0225H131.526V54.0024H131.544V53.9661H131.564V53.9458H131.582V53.9096H131.6V53.8894H131.62V53.8712H131.638V53.833H131.656V53.8148H131.676V53.7967H131.694V53.7584H131.712V53.7401H131.731V53.72H131.75V53.6837H131.769V53.6635H131.787V53.6454H131.805V53.6071H131.825V53.5888H131.843V53.5687H131.861V53.5506H131.881V53.5324H131.899V53.5122H131.917V53.4941H131.937V53.476H131.955V53.4377H131.973V53.4194H131.993V53.3993H132.011V53.3811H132.029V53.363H132.049V53.3428H132.067V53.3247H132.085V53.3066H132.105V53.2864H132.123V53.2683H132.141V53.25H132.161V53.2298H132.179V53.2117H132.199V53.1936H132.217V53.1734H132.235V53.1553H132.255V53.1351H132.273V53.117H132.291V53.0987H132.329V53.0786H132.347V53.0604H132.367V53.0423H132.385V53.0221H132.402V53.004H132.423V52.9859H132.44V52.9657H132.458V52.9474H132.496V52.9293H132.514V52.9092H132.534V52.891H132.57V52.8729H132.59V52.8527H132.608V52.8346H132.646V52.8163H132.664V52.7963H132.684V52.778H132.72V52.7599H132.74V52.7397H132.758V52.7216H132.796V52.7014H132.814V52.6833H132.852V52.665H132.87V52.645H132.908V52.6269H132.944V52.6086H132.964V52.5884H133V52.5703H133.038V52.5522H133.058V52.532H133.094V52.5139H133.131V52.4956H133.149V52.4756H133.187V52.4573H133.225V52.4392H133.261V52.419H133.299V52.4009H133.337V52.3827H133.373V52.3626H133.411V52.3445H133.449V52.3262H133.485V52.306H133.523V52.2879H133.561V52.2677H133.599V52.2496H133.655V52.2315H133.711V52.2113H133.767V52.1932H133.802V52.175H133.858V52.1549H133.914V52.1366H133.972V52.1185H134.008V52.0983H134.084V52.0802H134.14V52.0621H134.214V52.0419H134.288V52.0237H134.364V52.0056H134.438V51.9853H134.531V51.9672H134.643V51.9491H134.773V51.9289H134.905V51.9108H135.11V51.8926H162.532V51.9108H162.737V51.9289H162.866V51.9491H162.978V51.9672H163.11V51.9853H163.204V52.0056H163.278V52.0237H163.352V52.0419H163.408V52.0621H163.484V52.0802H163.558V52.0983H163.633V52.1185H163.67V52.1366H163.726V52.1549H163.782V52.175H163.82V52.1932H163.876V52.2113H163.932V52.2315H163.988V52.2496H164.025V52.2677H164.063V52.2879H164.119V52.306H164.154V52.3262H164.193V52.3445H164.231V52.3626H164.266V52.3827H164.304V52.4009H164.342V52.419H164.378V52.4392H164.416V52.4573H164.454V52.4756H164.492V52.4956H164.51V52.5139H164.548V52.532H164.584V52.5522H164.604V52.5703H164.64V52.5884H164.678V52.6086H164.696V52.6269H164.734V52.645H164.752V52.665H164.79V52.6833H164.828V52.7014H164.846V52.7216H164.864V52.7397H164.902V52.7599H164.921V52.778H164.94V52.7963H164.977V52.8163H164.996V52.8346H165.014V52.8527H165.052V52.8729H165.07V52.891H165.089V52.9092H165.126V52.9293H165.145V52.9474H165.164V52.9657H165.201V52.9859H165.22V53.004H165.238V53.0221H165.257V53.0423H165.276V53.0604H165.292V53.0786H165.313V53.0987H165.332V53.117H165.351V53.1351H165.388V53.1553H165.407V53.1734H165.425V53.1936H165.442V53.2117H165.463V53.2298H165.481V53.25H165.498V53.2683H165.519V53.2864H165.536V53.3066H165.554V53.3247H165.575V53.3428H165.592V53.363H165.61V53.3811H165.631V53.3993H165.648V53.4377H165.666V53.4558H165.686V53.476H165.704V53.4941H165.722V53.5122H165.742V53.5324H165.76V53.5506H165.778V53.5687H165.798V53.5888H165.816V53.6273H165.836V53.6454H165.854V53.6635H165.872V53.7018H165.892V53.72H165.91V53.7401H165.928V53.7765H165.948V53.7967H165.966V53.8148H165.984V53.8531H166.004V53.8712H166.022V53.8894H166.04V53.9277H166.06V53.9458H166.078V53.9661H166.096V54.0024H166.116V54.0407H166.134V54.0588H166.152V54.0971H166.172V54.1355H166.19V54.1537H166.208V54.192H166.228V54.2303H166.246V54.2484H166.265V54.2868H166.284V54.3231H166.302V54.3432H166.321V54.3795H166.34V54.4178H166.358V54.4562H166.377V54.4925H166.396V54.5308H166.414V54.5872H166.433V54.6256H166.452V54.6639H166.47V54.7002H166.489V54.7385H166.508V54.7769H166.526V54.8334H166.545V54.8898H166.564V54.9262H166.582V54.9846H166.601V55.0411H166.62V55.0775H166.636V55.1339H166.657V55.1903H166.676V55.2669H166.695V55.3416H166.713V55.3982H166.73V55.4748H166.751V55.5493H166.769V55.624H166.786V55.737H166.807V55.8499H166.825V55.983H166.842V56.096H166.863V56.3603H166.88V81.3021H166.863V81.5662H166.842V81.6994H166.825V81.8124H166.807V81.9435H166.786V82.0563H166.769V82.1129H166.751V82.1895H166.73V82.2642H166.713V82.3408H166.695V82.4153H166.676V82.49H166.657V82.5283H166.636V82.5849H166.62V82.6413H166.601V82.6977H166.582V82.7362H166.564V82.7926H166.545V82.849H166.526V82.9056H166.508V82.9439H166.489V82.9801H166.47V83.0185H166.452V83.0567H166.433V83.0931H166.414V83.1314H166.396V83.1697H166.377V83.208H166.358V83.2444H166.34V83.2827H166.321V83.321H166.302V83.3573H166.284V83.3957H166.265V83.4137H166.246V83.4521H166.228V83.4904H166.208V83.5086H166.19V83.547H166.172V83.5853H166.152V83.6034H166.134V83.6417H166.116V83.678H166.096V83.6983H166.078V83.7344H166.06V83.7547H166.04V83.7728H166.022V83.8111H166.004V83.8293H165.984V83.8474H165.966V83.8857H165.948V83.9038H165.928V83.9241H165.91V83.9604H165.892V83.9806H165.872V83.9987H165.854V84.037H165.836V84.0551H165.816V84.0754H165.798V84.0935H165.778V84.1117H165.76V84.15H165.742V84.1681H165.722V84.1883H165.704V84.2064H165.686V84.2247H165.666V84.2448H165.648V84.263H165.631V84.2811H165.61V84.3013H165.592V84.3375H165.575V84.3577H165.554V84.3758H165.536V84.3941H165.519V84.4142H165.498V84.4324H165.481V84.4525H165.463V84.4707H165.425V84.4888H165.407V84.509H165.388V84.5271H165.369V84.5454H165.351V84.5655H165.332V84.5837H165.313V84.6018H165.292V84.622H165.276V84.6401H165.257V84.6582H165.238V84.6784H165.201V84.6965H165.182V84.7148H165.164V84.7349H165.145V84.7531H165.108V84.7712H165.089V84.7914H165.07V84.8095H165.033V84.8278H165.014V84.8478H164.996V84.8661H164.958V84.8842H164.94V84.9044H164.921V84.9225H164.884V84.9427H164.864V84.9608H164.846V84.9789H164.808V84.9991H164.79V85.0172H164.752V85.0355H164.716V85.0555H164.696V85.0738H164.66V85.0919H164.622V85.1121H164.604V85.1302H164.566V85.1484H164.528V85.1685H164.51V85.1868H164.472V85.2049H164.434V85.2251H164.416V85.2432H164.36V85.2613H164.322V85.2815H164.287V85.2996H164.248V85.3178H164.21V85.3379H164.175V85.3562H164.137V85.3762H164.098V85.3945H164.063V85.4126H164.025V85.4328H163.969V85.4509H163.913V85.4691H163.857V85.4892H163.82V85.5075H163.764V85.5256H163.708V85.5458H163.652V85.5639H163.614V85.582H163.54V85.6022H163.464V85.6203H163.39V85.6385H163.316V85.6586H163.24V85.6769H163.184V85.695H163.072V85.7152H162.943V85.7333H162.831V85.7515H162.7V85.7716H162.438V85.7898" fill="#18204A" fill-opacity="0.3"/>
<path d="M19.8502 102.082V102.063H19.7382V102.045H19.645V102.026H19.5702V102.007H19.4956V101.988H19.4396V101.969H19.4022V101.95H19.3462V101.932H19.2902V101.913H19.253V101.894H19.2156V101.875H19.1782V101.856H19.141V101.837H19.1036V101.818H19.0662V101.8H19.0476V101.781H19.0102V101.762H18.973V101.743H18.9542V101.724H18.917V101.705H18.8982V101.686H18.8796V101.668H18.8422V101.649H18.8236V101.63H18.805V101.611H18.7676V101.592H18.749V101.573H18.7302V101.554H18.7116V101.536H18.693V101.517H18.6742V101.498H18.6556V101.479H18.637V101.46H18.6182V101.441H18.5996V101.422H18.581V101.404H18.5622V101.385H18.5436V101.366H18.525V101.347H18.5062V101.309H18.4876V101.291H18.469V101.272H18.4502V101.234H18.4316V101.215H18.413V101.196H18.3942V101.159H18.3756V101.14H18.357V101.102H18.3382V101.064H18.3196V101.045H18.301V101.008H18.2822V100.97H18.2636V100.932H18.245V100.895H18.2262V100.857H18.2076V100.819H18.189V100.763H18.1702V100.725H18.1516V100.668H18.133V100.612H18.1142V100.536H18.0956V100.48H18.077V100.386H18.0582V100.272H18.0396V100.065H18.021V93.127H18.0396V92.9197H18.0582V92.8066H18.077V92.7123H18.0956V92.6369H18.1142V92.5803H18.133V92.5238H18.1516V92.4672H18.1702V92.4106H18.189V92.3729H18.2076V92.3351H18.2262V92.2975H18.245V92.2598H18.2636V92.222H18.2822V92.1844H18.301V92.1467H18.3196V92.1089H18.3382V92.0901H18.357V92.0523H18.3756V92.0147H18.3942V91.9958H18.413V91.977H18.4316V91.9392H18.4502V91.9204H18.469V91.9016H18.4876V91.8639H18.5062V91.845H18.525V91.8261H18.5436V91.8073H18.5622V91.7885H18.581V91.7695H18.5996V91.7507H18.6182V91.7319H18.637V91.713H18.6556V91.6942H18.6742V91.6754H18.693V91.6564H18.7116V91.6376H18.7302V91.6188H18.749V91.5999H18.7676V91.5811H18.7862V91.5622H18.8236V91.5433H18.8422V91.5245H18.861V91.5057H18.8982V91.4867H18.917V91.4679H18.9356V91.4491H18.973V91.4302H19.0102V91.4114H19.029V91.3926H19.0662V91.3736H19.1036V91.3548H19.1222V91.336H19.1782V91.3171H19.2156V91.2983H19.253V91.2794H19.2902V91.2605H19.3276V91.2417H19.3836V91.2229H19.4396V91.2039H19.477V91.1851H19.5516V91.1663H19.6262V91.1474H19.701V91.1286H19.8316V91.1098H20.0182V91.0908H122.181V91.1098H122.386V91.1286H122.498V91.1474H122.592V91.1663H122.666V91.1851H122.722V91.2039H122.778V91.2229H122.834V91.2417H122.89V91.2605H122.928V91.2794H122.965V91.2983H123.002V91.3171H123.04V91.336H123.077V91.3548H123.114V91.3736H123.152V91.3926H123.17V91.4114H123.208V91.4302H123.245V91.4491H123.264V91.4679H123.301V91.4867H123.32V91.5057H123.338V91.5245H123.376V91.5433H123.394V91.5622H123.413V91.5811H123.45V91.5999H123.469V91.6188H123.488V91.6376H123.506V91.6564H123.525V91.6754H123.544V91.6942H123.562V91.713H123.581V91.7319H123.6V91.7507H123.618V91.7695H123.637V91.7885H123.656V91.8073H123.674V91.8261H123.693V91.845H123.712V91.8827H123.73V91.9016H123.749V91.9204H123.768V91.9582H123.786V91.977H123.805V91.9958H123.824V92.0335H123.842V92.0523H123.861V92.0901H123.88V92.1278H123.898V92.1467H123.917V92.1844H123.936V92.222H123.954V92.2598H123.973V92.2975H123.992V92.3351H124.01V92.3729H124.029V92.4295H124.048V92.486H124.066V92.5238H124.085V92.5803H124.104V92.6557H124.122V92.7311H124.141V92.8254H124.16V92.9385H124.178V100.235H124.16V100.367H124.141V100.461H124.122V100.536H124.104V100.612H124.085V100.649H124.066V100.706H124.048V100.763H124.029V100.819H124.01V100.857H123.992V100.895H123.973V100.932H123.954V100.97H123.936V101.008H123.917V101.027H123.898V101.064H123.88V101.102H123.861V101.121H123.842V101.159H123.824V101.177H123.805V101.215H123.786V101.234H123.768V101.253H123.749V101.291H123.73V101.309H123.712V101.328H123.693V101.347H123.674V101.385H123.656V101.404H123.637V101.422H123.618V101.441H123.6V101.46H123.581V101.479H123.562V101.498H123.544V101.517H123.525V101.536H123.506V101.554H123.488V101.573H123.45V101.592H123.432V101.611H123.413V101.63H123.394V101.649H123.357V101.668H123.338V101.686H123.32V101.705H123.282V101.724H123.264V101.743H123.226V101.762H123.208V101.781H123.17V101.8H123.133V101.818H123.114V101.837H123.077V101.856H123.04V101.875H123.002V101.894H122.965V101.913H122.928V101.932H122.872V101.95H122.816V101.969H122.778V101.988H122.722V102.007H122.648V102.026H122.573V102.045H122.48V102.063H122.368V102.082" fill="#18204A" fill-opacity="0.3"/>
<path d="M122.807 109.389H17.8545V111.678H122.807V109.389Z" fill="#18204A" fill-opacity="0.5"/>
<path d="M122.807 117.4H17.8545V119.689H122.807V117.4Z" fill="#18204A" fill-opacity="0.5"/>
<path d="M70.007 125.409H17.5317V127.696H70.007V125.409Z" fill="#18204A" fill-opacity="0.5"/>
<path d="M225.589 54.5386H178.592V56.8254H225.589V54.5386Z" fill="#18204A" fill-opacity="0.5"/>
<path d="M225.589 62.5454H178.592V64.8347H225.589V62.5454Z" fill="#18204A" fill-opacity="0.5"/>
<path d="M225.582 70.5566H178.476V72.8436H225.582V70.5566Z" fill="#18204A" fill-opacity="0.5"/>
<path d="M209.925 78.5649H178.455V80.8524H209.925V78.5649Z" fill="#18204A" fill-opacity="0.5"/>
</g>
<defs>
<clipPath id="clip0_213_326">
<rect width="246" height="195" fill="white"/>
</clipPath>
</defs>
</svg>
