<svg width="24" height="24" viewBox="0 0 24 24" fill="none" xmlns="http://www.w3.org/2000/svg">
<path d="M21.5998 6.05995C20.8798 6.35995 20.1598 6.59995 19.3198 6.65995C20.1598 6.17995 20.7598 5.39995 21.0598 4.49995C20.2798 4.97995 19.4398 5.27995 18.5398 5.45995C17.8198 4.67995 16.7998 4.19995 15.7198 4.19995C13.5598 4.19995 11.7598 5.93995 11.7598 8.15995C11.7598 8.45995 11.8198 8.75995 11.8798 9.05995C8.57984 8.87995 5.69984 7.31995 3.71984 4.91995C3.35984 5.51995 3.17984 6.17995 3.17984 6.89995C3.17984 8.27995 3.89984 9.47995 4.91984 10.2C4.25984 10.2 3.65984 10.02 3.11984 9.71995V9.77995C3.11984 11.7 4.49984 13.26 6.29984 13.62C5.93984 13.68 5.63984 13.74 5.27984 13.74C5.03984 13.74 4.79984 13.74 4.55984 13.68C5.03984 15.24 6.53984 16.38 8.21984 16.44C6.89984 17.52 5.15984 18.12 3.29984 18.12C2.99984 18.12 2.63984 18.12 2.33984 18.06C4.13984 19.14 6.23984 19.8 8.45984 19.8C15.7198 19.8 19.6798 13.8 19.6798 8.57995C19.6798 8.39995 19.6798 8.21995 19.6798 8.09995C20.3998 7.49995 21.0598 6.83995 21.5998 6.05995Z" fill="#18204A"/>
</svg>
