<svg width="32" height="32" viewBox="0 0 32 32" fill="none" xmlns="http://www.w3.org/2000/svg">
<path d="M25.5308 10.6282C25.0521 9.8295 24.1761 9.3335 23.2454 9.3335L20.0001 9.3335V6.66683C20.0001 5.9295 19.4041 5.3335 18.6667 5.3335L5.33341 5.3335C3.86275 5.3335 2.66675 6.5295 2.66675 8.00016L2.66675 21.3335C2.66675 22.3282 3.22141 23.1882 4.03075 23.6455C4.19475 26.0708 6.20008 28.0002 8.66675 28.0002C11.0121 28.0002 12.9387 26.2548 13.2654 24.0002H17.4014C17.7281 26.2548 19.6547 28.0002 22.0001 28.0002C24.3454 28.0002 26.2721 26.2548 26.5987 24.0002H26.6667C28.1374 24.0002 29.3334 22.8042 29.3334 21.3335V17.3335C29.3334 17.0908 29.2681 16.8548 29.1427 16.6468L25.5308 10.6282ZM20.0001 12.0002L23.2454 12.0002L25.6454 16.0002L20.0001 16.0002L20.0001 12.0002ZM8.66675 25.3335C7.56408 25.3335 6.66675 24.4362 6.66675 23.3335C6.66675 22.2308 7.56408 21.3335 8.66675 21.3335C9.76941 21.3335 10.6667 22.2308 10.6667 23.3335C10.6667 24.4362 9.76941 25.3335 8.66675 25.3335ZM22.0001 25.3335C20.8974 25.3335 20.0001 24.4362 20.0001 23.3335C20.0001 22.2308 20.8974 21.3335 22.0001 21.3335C23.1027 21.3335 24.0001 22.2308 24.0001 23.3335C24.0001 24.4362 23.1027 25.3335 22.0001 25.3335Z" fill="#1A1A18"/>
</svg>
