<svg width="24" height="24" viewBox="0 0 24 24" fill="none" xmlns="http://www.w3.org/2000/svg">
<path d="M10.4198 12.9999C11.2898 12.9999 11.9998 12.2899 11.9998 11.4199C11.9998 10.7699 11.6098 10.1999 11.0098 9.9499L5.23984 7.6499C3.83984 9.1199 2.81984 10.9499 2.33984 12.9999L10.4198 12.9999Z" fill="#1A1A18"/>
<path d="M21.92 10.84C21.36 6.85 17.75 4 13.73 4C11.2 4 8.86 4.81 6.94 6.18L11.76 8.1C12.4217 8.36711 12.9886 8.82589 13.3877 9.41746C13.7868 10.009 14 10.7064 14 11.42C14 13.4 12.4 15 10.42 15L2.04 15C2.02 15.24 2 15.48 2 15.73L2 18C2 19.1 2.9 20 4 20L14 20C18.8 20 22.61 15.77 21.92 10.84Z" fill="#1A1A18"/>
</svg>
