<svg width="24" height="24" viewBox="0 0 24 24" fill="none" xmlns="http://www.w3.org/2000/svg">
<path d="M19.5 8H17V6C17 4.9 16.1 4 15 4L3 4C1.9 4 1 4.9 1 6L1 15C1 16.1 1.9 17 3 17C3 18.66 4.34 20 6 20C7.66 20 9 18.66 9 17L15 17C15 18.66 16.34 20 18 20C19.66 20 21 18.66 21 17H22C22.55 17 23 16.55 23 16V12.33C23 12.11 22.93 11.9 22.8 11.73L20.3 8.4C20.11 8.15 19.81 8 19.5 8ZM6 18C5.45 18 5 17.55 5 17C5 16.45 5.45 16 6 16C6.55 16 7 16.45 7 17C7 17.55 6.55 18 6 18ZM18 18C17.45 18 17 17.55 17 17C17 16.45 17.45 16 18 16C18.55 16 19 16.45 19 17C19 17.55 18.55 18 18 18ZM17 13V10H19L21.25 13L17 13Z" fill="#1A1A18"/>
</svg>
