<svg width="24" height="24" viewBox="0 0 24 24" fill="none" xmlns="http://www.w3.org/2000/svg">
<path d="M11.143 12.8569C8.72243 12.8569 6.57528 13.4038 5.16443 13.8795C4.123 14.2318 3.42871 15.2132 3.42871 16.3129L3.42871 19.7141C3.42871 19.7141 10.2499 19.7141 10.2859 19.7141" stroke="#18204A" stroke-width="2.05714" stroke-miterlimit="10"/>
<path d="M21.4284 17.1431H14.5713L14.5713 21.4288H21.4284V17.1431Z" stroke="#18204A" stroke-width="2.05714" stroke-miterlimit="10" stroke-linecap="square"/>
<path d="M16.2856 17.1426V14.5712C16.2856 13.6284 17.0571 12.8569 17.9999 12.8569C18.9428 12.8569 19.7142 13.6284 19.7142 14.5712V17.1426" stroke="#18204A" stroke-width="2.05714" stroke-miterlimit="10" stroke-linecap="square"/>
<path d="M11.1426 12.857C8.77608 12.857 6.85693 10.0807 6.85693 7.71415V6.857C6.85693 4.49043 8.77608 2.57129 11.1426 2.57129C13.5092 2.57129 15.4284 4.49043 15.4284 6.857V7.71415C15.4284 10.0807 13.5092 12.857 11.1426 12.857Z" stroke="#18204A" stroke-width="2.05714" stroke-miterlimit="10" stroke-linecap="square"/>
</svg>
