<svg width="24" height="24" viewBox="0 0 24 24" fill="none" xmlns="http://www.w3.org/2000/svg">
<path d="M17.9907 19.2812C17.8749 17.2344 16.7075 16.5847 15.0001 16.0155C13.6955 15.5809 13.3364 14.2112 13.2378 13.4844" stroke="#60605C" stroke-width="2.05714" stroke-miterlimit="10"/>
<path d="M10.7615 13.4839C10.6647 14.2073 10.3124 15.5787 9.0001 16.0159C7.29267 16.585 6.12353 17.233 6.00781 19.2799" stroke="#60605C" stroke-width="2.05714" stroke-miterlimit="10"/>
<path d="M11.9999 13.7143C10.1064 13.7143 8.57129 12.1791 8.57129 10.2857L8.57129 9.42857C8.57129 7.53514 10.1064 6 11.9999 6C13.8933 6 15.4284 7.53514 15.4284 9.42857V10.2857C15.4284 12.1791 13.8933 13.7143 11.9999 13.7143Z" stroke="#60605C" stroke-width="2.05714" stroke-miterlimit="10" stroke-linecap="square"/>
<path d="M11.9999 21.4284C17.2071 21.4284 21.4284 17.2071 21.4284 11.9999C21.4284 6.7926 17.2071 2.57129 11.9999 2.57129C6.7926 2.57129 2.57129 6.7926 2.57129 11.9999C2.57129 17.2071 6.7926 21.4284 11.9999 21.4284Z" stroke="#60605C" stroke-width="2.05714" stroke-miterlimit="10" stroke-linecap="square"/>
</svg>
